<?xml version="1.0" encoding="UTF-8" ?>
<svg
	xmlns="http://www.w3.org/2000/svg"
	xmlns:xlink="http://www.w3.org/1999/xlink"
	width="96px"
	height="21px"
	viewBox="0 0 96 21"
	version="1.1"
>
<g id="surface1">
<path
			style=" stroke:none;fill-rule:nonzero;fill:rgb(0.784314%,4.313726%,0.392157%);fill-opacity:1;"
			d="M 11.53125 2.484375 L 17.90625 2.484375 L 18.1875 2.90625 L 21 7.78125 L 21.140625 8.015625 L 21.046875 8.296875 L 20.296875 9.609375 L 19.78125 10.5 L 19.59375 10.828125 L 19.640625 11.0625 L 20.296875 12.234375 L 20.765625 13.03125 L 21.09375 13.59375 L 21.046875 13.828125 L 20.296875 15.140625 L 19.640625 16.265625 L 18.234375 18.703125 L 17.90625 19.21875 L 17.859375 19.265625 L 11.484375 19.265625 L 11.15625 18.796875 L 10.6875 17.953125 L 10.03125 16.828125 L 9.28125 15.515625 L 8.578125 14.296875 L 8.25 13.734375 L 8.296875 13.546875 L 8.953125 12.375 L 9.65625 11.203125 L 9.84375 10.828125 L 9.140625 9.609375 L 8.390625 8.296875 L 8.296875 8.15625 L 8.34375 7.921875 L 9.09375 6.609375 L 11.203125 2.953125 L 11.484375 2.53125 Z M 12.234375 3.140625 L 12.1875 3.328125 L 12 7.734375 L 12 8.109375 L 17.25 8.109375 L 17.25 3.140625 Z M 11.484375 3.796875 L 11.0625 4.5 L 10.453125 5.578125 L 9.796875 6.703125 L 9.046875 8.015625 L 9.09375 8.25 L 9.75 9.375 L 10.21875 10.171875 L 10.3125 10.171875 L 10.828125 9.234375 L 11.296875 8.4375 L 11.34375 8.34375 L 11.4375 6.5625 L 11.53125 4.3125 L 11.53125 3.796875 Z M 17.859375 3.796875 L 17.90625 8.15625 L 18.609375 9.375 L 19.078125 10.171875 L 19.21875 10.171875 L 19.828125 9.09375 L 20.390625 8.109375 L 20.015625 7.359375 L 19.546875 6.5625 L 18.84375 5.34375 L 18.09375 4.03125 L 17.953125 3.796875 Z M 12.421875 8.71875 L 12.46875 8.859375 L 13.125 9.328125 L 14.109375 10.078125 L 14.625 10.453125 L 14.859375 10.359375 L 15.703125 9.703125 L 16.828125 8.859375 L 16.828125 8.71875 Z M 11.625 9.046875 L 10.96875 10.21875 L 10.640625 10.78125 L 10.6875 10.96875 L 11.390625 12.234375 L 11.671875 12.703125 L 11.859375 12.609375 L 12.421875 12.1875 L 13.40625 11.4375 L 14.109375 10.921875 L 14.0625 10.78125 L 13.21875 10.171875 L 12.609375 9.703125 L 11.859375 9.140625 Z M 17.578125 9.046875 L 17.0625 9.46875 L 15.75 10.453125 L 15.234375 10.828125 L 15.46875 11.0625 L 16.3125 11.71875 L 17.203125 12.375 L 17.625 12.703125 L 17.765625 12.703125 L 18.234375 11.859375 L 18.75 10.96875 L 18.65625 10.6875 L 17.953125 9.46875 L 17.71875 9.046875 Z M 14.625 11.296875 L 13.640625 12.046875 L 12.75 12.703125 L 12.421875 12.9375 L 12.421875 12.984375 L 16.96875 12.984375 L 16.734375 12.796875 L 15.890625 12.140625 L 15 11.484375 L 14.765625 11.296875 Z M 10.21875 11.53125 L 9.984375 11.90625 L 9.28125 13.125 L 9 13.640625 L 9.09375 13.921875 L 9.703125 14.953125 L 10.40625 16.171875 L 11.015625 17.25 L 11.390625 17.859375 L 11.4375 17.859375 L 11.390625 13.453125 L 10.921875 12.609375 L 10.3125 11.578125 Z M 19.125 11.578125 L 18.75 12.1875 L 18.140625 13.265625 L 17.953125 13.546875 L 17.90625 13.875 L 17.765625 17.390625 L 17.765625 18.09375 L 17.953125 17.90625 L 18.65625 16.640625 L 19.3125 15.515625 L 20.015625 14.296875 L 20.34375 13.734375 L 20.25 13.453125 L 19.546875 12.234375 L 19.171875 11.578125 Z M 12.046875 13.640625 L 12 13.6875 L 12.046875 16.96875 L 12.09375 18.609375 L 17.0625 18.609375 L 17.109375 18.421875 L 17.296875 13.96875 L 17.296875 13.6875 L 17.25 13.640625 Z M 12.046875 13.640625 "
		/>
<path
			style=" stroke:none;fill-rule:nonzero;fill:rgb(0%,0%,0%);fill-opacity:1;"
			d="M 80.71875 5.765625 L 82.5 5.765625 L 83.859375 7.828125 L 85.21875 9.84375 L 86.8125 12.234375 L 86.8125 12.328125 L 86.90625 12.328125 L 86.90625 5.765625 L 88.59375 5.765625 L 88.640625 5.8125 L 88.640625 15.140625 L 88.59375 15.1875 L 86.90625 15.1875 L 86.484375 14.625 L 85.125 12.5625 L 83.765625 10.546875 L 82.5 8.625 L 82.453125 15.1875 L 80.765625 15.1875 L 80.71875 15.140625 Z M 80.71875 5.765625 "
		/>
<path
			style=" stroke:none;fill-rule:nonzero;fill:rgb(0%,0%,0%);fill-opacity:1;"
			d="M 46.59375 5.578125 L 47.4375 5.578125 L 48.1875 5.671875 L 48.9375 5.90625 L 49.59375 6.234375 L 50.109375 6.609375 L 50.53125 6.984375 L 50.953125 7.546875 L 51.28125 8.109375 L 51.5625 8.859375 L 51.703125 9.5625 L 51.75 9.9375 L 51.75 11.015625 L 51.609375 11.859375 L 51.328125 12.703125 L 51 13.3125 L 50.53125 13.921875 L 50.15625 14.296875 L 49.546875 14.71875 L 48.890625 15.046875 L 48.046875 15.28125 L 47.71875 15.328125 L 46.3125 15.328125 L 45.609375 15.1875 L 44.953125 14.953125 L 44.34375 14.625 L 43.828125 14.203125 L 43.359375 13.734375 L 42.890625 13.03125 L 42.5625 12.28125 L 42.375 11.53125 L 42.28125 10.6875 L 42.328125 9.65625 L 42.515625 8.8125 L 42.75 8.203125 L 43.125 7.5 L 43.546875 6.984375 L 43.921875 6.609375 L 44.625 6.140625 L 45.234375 5.859375 L 45.890625 5.671875 Z M 46.640625 7.125 L 45.984375 7.265625 L 45.328125 7.59375 L 44.765625 8.109375 L 44.390625 8.71875 L 44.15625 9.421875 L 44.0625 9.984375 L 44.0625 10.921875 L 44.203125 11.71875 L 44.4375 12.28125 L 44.71875 12.75 L 45 13.078125 L 45.609375 13.5 L 46.21875 13.734375 L 46.5 13.78125 L 47.578125 13.78125 L 48.140625 13.640625 L 48.703125 13.359375 L 49.265625 12.84375 L 49.59375 12.328125 L 49.828125 11.765625 L 49.96875 11.109375 L 49.96875 9.796875 L 49.78125 9 L 49.40625 8.25 L 48.984375 7.78125 L 48.421875 7.40625 L 47.71875 7.171875 L 47.390625 7.125 Z M 46.640625 7.125 "
		/>
<path
			style=" stroke:none;fill-rule:nonzero;fill:rgb(0%,0.392157%,0%);fill-opacity:1;"
			d="M 65.15625 5.578125 L 66.09375 5.578125 L 66.984375 5.71875 L 67.734375 6 L 68.296875 6.328125 L 68.765625 6.75 L 69.140625 7.171875 L 69.515625 7.875 L 69.75 8.671875 L 69.75 8.765625 L 69.65625 8.8125 L 67.875 8.8125 L 67.546875 8.109375 L 67.265625 7.734375 L 66.75 7.40625 L 66.140625 7.21875 L 65.390625 7.171875 L 64.78125 7.265625 L 64.265625 7.453125 L 63.75 7.828125 L 63.421875 8.203125 L 63.046875 8.953125 L 62.90625 9.46875 L 62.859375 9.796875 L 62.859375 11.15625 L 63 11.859375 L 63.234375 12.421875 L 63.5625 12.9375 L 63.984375 13.3125 L 64.546875 13.59375 L 65.109375 13.734375 L 66.09375 13.734375 L 66.609375 13.59375 L 67.171875 13.3125 L 67.546875 12.890625 L 67.875 12.234375 L 69.75 12.234375 L 69.65625 12.703125 L 69.421875 13.3125 L 69.140625 13.78125 L 68.8125 14.203125 L 68.15625 14.71875 L 67.359375 15.09375 L 66.609375 15.28125 L 66.28125 15.328125 L 64.921875 15.328125 L 64.171875 15.1875 L 63.421875 14.90625 L 62.765625 14.484375 L 62.296875 14.0625 L 61.921875 13.640625 L 61.5 12.890625 L 61.21875 12.140625 L 61.078125 11.484375 L 61.03125 11.15625 L 61.03125 9.796875 L 61.171875 9 L 61.453125 8.15625 L 61.828125 7.453125 L 62.296875 6.84375 L 62.90625 6.328125 L 63.5625 5.953125 L 64.265625 5.71875 Z M 65.15625 5.578125 "
		/>
<path
			style=" stroke:none;fill-rule:nonzero;fill:rgb(0%,0%,0%);fill-opacity:1;"
			d="M 74.109375 5.765625 L 76.078125 5.765625 L 76.265625 6.234375 L 78.421875 12.140625 L 79.265625 14.4375 L 79.5 15.046875 L 79.5 15.1875 L 77.671875 15.1875 L 77.109375 13.59375 L 76.921875 13.03125 L 73.265625 13.03125 L 72.515625 15.140625 L 72.46875 15.1875 L 70.6875 15.1875 L 70.734375 14.953125 L 71.71875 12.234375 L 72.5625 9.9375 L 73.640625 6.984375 L 74.0625 5.859375 Z M 75.046875 7.78125 L 74.34375 9.796875 L 73.734375 11.53125 L 73.734375 11.671875 L 76.40625 11.671875 L 76.359375 11.34375 L 75.375 8.484375 L 75.140625 7.828125 Z M 75.046875 7.78125 "
		/>
<path
			style=" stroke:none;fill-rule:nonzero;fill:rgb(0%,0%,0%);fill-opacity:1;"
			d="M 56.015625 5.578125 L 56.671875 5.578125 L 57.328125 5.671875 L 57.9375 5.859375 L 58.5 6.1875 L 58.96875 6.609375 L 59.296875 7.078125 L 59.53125 7.734375 L 59.578125 8.296875 L 57.75 8.296875 L 57.609375 7.875 L 57.375 7.5 L 57.375 7.40625 L 56.8125 7.125 L 56.578125 7.078125 L 55.96875 7.078125 L 55.453125 7.265625 L 55.125 7.640625 L 55.03125 7.921875 L 55.03125 8.4375 L 55.21875 8.8125 L 55.546875 9.09375 L 56.15625 9.375 L 57.609375 9.890625 L 58.6875 10.40625 L 59.203125 10.828125 L 59.578125 11.34375 L 59.765625 11.859375 L 59.8125 12.140625 L 59.8125 12.9375 L 59.671875 13.5 L 59.390625 14.0625 L 58.96875 14.53125 L 58.546875 14.859375 L 58.078125 15.09375 L 57.65625 15.234375 L 57.140625 15.328125 L 55.828125 15.328125 L 54.984375 15.140625 L 54.234375 14.765625 L 53.859375 14.484375 L 53.484375 14.109375 L 53.15625 13.546875 L 52.96875 12.890625 L 52.921875 12.375 L 52.96875 12.328125 L 54.75 12.328125 L 54.984375 13.078125 L 55.265625 13.453125 L 55.6875 13.734375 L 56.34375 13.875 L 56.953125 13.828125 L 57.515625 13.59375 L 57.75 13.359375 L 57.890625 13.125 L 57.9375 12.9375 L 57.9375 12.421875 L 57.75 11.953125 L 57.65625 11.765625 L 56.71875 11.296875 L 55.21875 10.78125 L 54.421875 10.40625 L 53.859375 9.984375 L 53.484375 9.5625 L 53.25 9 L 53.15625 8.4375 L 53.15625 8.015625 L 53.296875 7.359375 L 53.578125 6.796875 L 54.046875 6.28125 L 54.5625 5.953125 L 55.171875 5.71875 L 55.59375 5.625 Z M 56.015625 5.578125 "
		/>
<path
			style=" stroke:none;fill-rule:nonzero;fill:rgb(0%,0%,0%);fill-opacity:1;"
			d="M 25.921875 5.765625 L 32.0625 5.765625 L 32.0625 7.125 L 27.65625 7.125 L 27.65625 9.75 L 28.734375 9.703125 L 31.640625 9.703125 L 31.6875 9.75 L 31.6875 11.0625 L 27.65625 11.0625 L 27.65625 13.78125 L 32.0625 13.78125 L 32.109375 13.921875 L 32.0625 15.1875 L 25.921875 15.1875 Z M 25.921875 5.765625 "
		/>
<path
			style=" stroke:none;fill-rule:nonzero;fill:rgb(0%,0%,0%);fill-opacity:1;"
			d="M 41.109375 5.71875 L 41.203125 5.71875 L 41.109375 5.953125 L 40.546875 6.84375 L 39.796875 8.0625 L 38.390625 10.3125 L 38.296875 10.5 L 38.8125 11.34375 L 39.515625 12.421875 L 40.265625 13.59375 L 40.875 14.53125 L 41.25 15.09375 L 41.25 15.1875 L 39.28125 15.1875 L 38.8125 14.484375 L 38.15625 13.453125 L 37.546875 12.515625 L 37.171875 11.953125 L 37.078125 11.90625 L 36.984375 12.1875 L 36.328125 13.3125 L 35.53125 14.671875 L 35.203125 15.1875 L 33.28125 15.1875 L 33.375 14.953125 L 34.078125 13.828125 L 34.828125 12.609375 L 35.53125 11.484375 L 36.140625 10.5 L 36.09375 10.265625 L 35.53125 9.375 L 35.015625 8.578125 L 34.265625 7.40625 L 33.234375 5.8125 L 33.234375 5.765625 L 35.25 5.765625 L 35.71875 6.515625 L 36.75 8.109375 L 37.3125 8.953125 L 37.453125 8.765625 L 38.203125 7.5 L 39 6.140625 L 39.234375 5.765625 Z M 41.109375 5.71875 "
		/>
</g>
</svg>
