<?xml version="1.0" encoding="UTF-8" ?>
<svg
	xmlns="http://www.w3.org/2000/svg"
	xmlns:xlink="http://www.w3.org/1999/xlink"
	width="96px"
	height="21px"
	viewBox="0 0 96 21"
	version="1.1"
>
<g id="surface1">
<path
			style=" stroke:none;fill-rule:nonzero;fill:rgb(37.254903%,97.647059%,2.352941%);fill-opacity:1;"
			d="M 11.625 2.53125 L 18.046875 2.53125 L 18.515625 3.328125 L 19.21875 4.546875 L 19.78125 5.53125 L 20.484375 6.75 L 21.140625 7.875 L 21.234375 8.109375 L 20.625 9.1875 L 19.96875 10.3125 L 19.640625 10.921875 L 20.390625 12.234375 L 21.09375 13.453125 L 21.1875 13.59375 L 21.140625 13.828125 L 20.484375 14.953125 L 19.78125 16.171875 L 19.125 17.296875 L 18.421875 18.515625 L 18 19.21875 L 11.578125 19.21875 L 11.25 18.703125 L 10.5 17.390625 L 9.84375 16.265625 L 9.09375 14.953125 L 8.4375 13.828125 L 8.390625 13.59375 L 9.09375 12.375 L 9.84375 11.109375 L 9.9375 10.96875 L 9.890625 10.6875 L 9.140625 9.375 L 8.4375 8.15625 L 8.484375 7.921875 L 9.140625 6.75 L 9.796875 5.625 L 11.203125 3.1875 L 11.53125 2.625 Z M 13.03125 3.09375 L 12.328125 3.140625 L 12.28125 3.28125 L 12.09375 7.59375 L 12.09375 8.15625 L 17.390625 8.15625 L 17.390625 3.140625 L 16.546875 3.09375 Z M 17.953125 3.703125 L 18 8.203125 L 18.375 8.8125 L 18.984375 9.890625 L 19.21875 10.265625 L 19.3125 10.265625 L 19.828125 9.328125 L 20.484375 8.203125 L 20.53125 8.0625 L 20.015625 7.125 L 19.359375 6 L 18.65625 4.78125 L 18.046875 3.75 Z M 11.578125 3.75 L 10.078125 6.375 L 9.421875 7.5 L 9.140625 8.015625 L 9.1875 8.25 L 9.890625 9.46875 L 10.3125 10.21875 L 10.40625 10.21875 L 11.109375 9 L 11.484375 8.34375 L 11.671875 4.171875 L 11.671875 3.75 Z M 12.46875 8.71875 L 12.703125 8.953125 L 13.3125 9.421875 L 14.203125 10.078125 L 14.765625 10.5 L 15.1875 10.21875 L 15.796875 9.75 L 16.734375 9.046875 L 17.0625 8.8125 L 17.0625 8.71875 Z M 11.765625 9 L 11.484375 9.46875 L 10.828125 10.59375 L 10.734375 10.78125 L 10.78125 11.015625 L 11.484375 12.234375 L 11.765625 12.703125 L 11.953125 12.65625 L 13.921875 11.15625 L 14.25 10.921875 L 14.203125 10.78125 L 13.3125 10.125 L 12.328125 9.375 L 11.8125 9 Z M 17.71875 9 L 17.203125 9.421875 L 16.3125 10.078125 L 15.703125 10.546875 L 15.328125 10.828125 L 15.328125 10.921875 L 16.21875 11.578125 L 17.203125 12.328125 L 17.71875 12.703125 L 17.859375 12.75 L 18.5625 11.53125 L 18.890625 10.96875 L 18.796875 10.6875 L 18.09375 9.46875 L 17.8125 9 Z M 14.765625 11.25 L 14.015625 11.8125 L 13.03125 12.5625 L 12.515625 12.9375 L 12.515625 13.03125 L 17.109375 13.03125 L 16.875 12.796875 L 16.359375 12.375 L 15.703125 11.90625 L 14.90625 11.296875 Z M 10.3125 11.484375 L 9.65625 12.609375 L 9.09375 13.59375 L 9.140625 13.828125 L 9.890625 15.140625 L 10.59375 16.359375 L 11.25 17.484375 L 11.53125 17.90625 L 11.578125 17.71875 L 11.484375 13.359375 L 10.78125 12.140625 L 10.40625 11.484375 Z M 19.171875 11.578125 L 18.609375 12.609375 L 18.046875 13.546875 L 18 13.734375 L 17.859375 17.203125 L 17.859375 18.1875 L 18.046875 17.953125 L 18.796875 16.640625 L 20.203125 14.203125 L 20.484375 13.734375 L 20.390625 13.453125 L 19.734375 12.328125 L 19.3125 11.578125 Z M 12.09375 13.640625 L 12.140625 17.390625 L 12.1875 18.609375 L 17.203125 18.609375 L 17.25 18.1875 L 17.4375 13.640625 Z M 12.09375 13.640625 "
		/>
<path
			style=" stroke:none;fill-rule:nonzero;fill:rgb(37.254903%,97.647059%,2.352941%);fill-opacity:1;"
			d="M 80.71875 6.28125 L 82.5 6.28125 L 83.859375 8.34375 L 85.21875 10.359375 L 86.578125 12.421875 L 86.8125 12.75 L 86.8125 12.84375 L 86.90625 12.84375 L 86.90625 6.28125 L 88.59375 6.28125 L 88.640625 6.328125 L 88.640625 15.65625 L 88.59375 15.703125 L 86.90625 15.703125 L 86.390625 15 L 85.03125 12.9375 L 83.671875 10.921875 L 82.5 9.140625 L 82.453125 15.65625 L 82.40625 15.703125 L 80.765625 15.703125 L 80.71875 15.65625 Z M 80.71875 6.28125 "
		/>
<path
			style=" stroke:none;fill-rule:nonzero;fill:rgb(37.254903%,97.647059%,2.352941%);fill-opacity:1;"
			d="M 46.59375 6.09375 L 47.484375 6.09375 L 48.1875 6.1875 L 48.84375 6.375 L 49.59375 6.75 L 50.109375 7.125 L 50.578125 7.546875 L 51.046875 8.203125 L 51.421875 8.953125 L 51.65625 9.75 L 51.75 10.359375 L 51.75 11.578125 L 51.609375 12.421875 L 51.375 13.125 L 51 13.828125 L 50.578125 14.390625 L 50.15625 14.8125 L 49.453125 15.28125 L 48.84375 15.5625 L 47.953125 15.796875 L 47.578125 15.84375 L 46.453125 15.84375 L 45.65625 15.703125 L 44.859375 15.421875 L 44.15625 15 L 43.546875 14.4375 L 43.125 13.921875 L 42.75 13.265625 L 42.421875 12.28125 L 42.328125 11.765625 L 42.28125 10.875 L 42.375 9.9375 L 42.5625 9.1875 L 42.796875 8.625 L 43.078125 8.109375 L 43.546875 7.5 L 43.875 7.171875 L 44.53125 6.703125 L 45.328125 6.328125 L 46.171875 6.140625 Z M 46.640625 7.640625 L 45.984375 7.78125 L 45.328125 8.109375 L 44.765625 8.625 L 44.390625 9.234375 L 44.15625 9.9375 L 44.0625 10.546875 L 44.0625 11.390625 L 44.203125 12.1875 L 44.4375 12.796875 L 44.765625 13.3125 L 45.234375 13.78125 L 45.703125 14.0625 L 46.265625 14.25 L 46.5 14.296875 L 47.53125 14.296875 L 48.140625 14.15625 L 48.75 13.828125 L 49.21875 13.40625 L 49.59375 12.890625 L 49.875 12.140625 L 49.96875 11.625 L 49.96875 10.3125 L 49.828125 9.65625 L 49.59375 9.09375 L 49.265625 8.578125 L 48.9375 8.25 L 48.328125 7.875 L 47.765625 7.6875 L 47.4375 7.640625 Z M 46.640625 7.640625 "
		/>
<path
			style=" stroke:none;fill-rule:nonzero;fill:rgb(37.254903%,97.647059%,2.352941%);fill-opacity:1;"
			d="M 74.109375 6.28125 L 76.078125 6.28125 L 76.40625 7.125 L 77.390625 9.84375 L 78.234375 12.140625 L 79.125 14.578125 L 79.5 15.5625 L 79.5 15.703125 L 77.71875 15.703125 L 77.578125 15.46875 L 76.921875 13.546875 L 73.21875 13.5 L 73.125 13.921875 L 72.515625 15.65625 L 72.46875 15.703125 L 70.6875 15.703125 L 70.734375 15.46875 L 71.390625 13.640625 L 72.234375 11.34375 L 73.125 8.90625 L 73.96875 6.609375 Z M 75.046875 8.296875 L 74.484375 9.890625 L 73.734375 12.046875 L 73.734375 12.140625 L 76.40625 12.1875 L 76.453125 12.09375 L 75.75 10.078125 L 75.140625 8.34375 Z M 75.046875 8.296875 "
		/>
<path
			style=" stroke:none;fill-rule:nonzero;fill:rgb(37.254903%,97.647059%,2.352941%);fill-opacity:1;"
			d="M 65.15625 6.09375 L 66.09375 6.09375 L 66.796875 6.1875 L 67.546875 6.421875 L 68.25 6.796875 L 68.8125 7.3125 L 69.140625 7.6875 L 69.515625 8.390625 L 69.75 9.1875 L 69.75 9.28125 L 67.828125 9.28125 L 67.59375 8.71875 L 67.3125 8.296875 L 66.9375 8.015625 L 66.375 7.78125 L 65.765625 7.6875 L 65.34375 7.6875 L 64.59375 7.828125 L 64.03125 8.109375 L 63.5625 8.53125 L 63.234375 9.046875 L 63 9.609375 L 62.859375 10.3125 L 62.859375 11.671875 L 63 12.375 L 63.328125 13.125 L 63.75 13.640625 L 64.21875 13.96875 L 64.875 14.203125 L 65.109375 14.25 L 66.046875 14.25 L 66.65625 14.109375 L 67.171875 13.828125 L 67.546875 13.40625 L 67.875 12.75 L 69.75 12.75 L 69.65625 13.21875 L 69.421875 13.828125 L 69.140625 14.296875 L 68.71875 14.765625 L 68.296875 15.140625 L 67.59375 15.515625 L 66.84375 15.75 L 66.234375 15.84375 L 64.921875 15.84375 L 64.171875 15.703125 L 63.421875 15.421875 L 62.90625 15.09375 L 62.4375 14.71875 L 61.96875 14.203125 L 61.59375 13.59375 L 61.3125 12.9375 L 61.125 12.234375 L 61.03125 11.671875 L 61.03125 10.3125 L 61.171875 9.515625 L 61.453125 8.671875 L 61.828125 7.96875 L 62.34375 7.3125 L 62.90625 6.84375 L 63.5625 6.46875 L 64.21875 6.234375 Z M 65.15625 6.09375 "
		/>
<path
			style=" stroke:none;fill-rule:nonzero;fill:rgb(37.254903%,97.647059%,2.352941%);fill-opacity:1;"
			d="M 55.96875 6.09375 L 56.71875 6.09375 L 57.5625 6.234375 L 58.21875 6.515625 L 58.734375 6.890625 L 59.0625 7.21875 L 59.390625 7.78125 L 59.578125 8.53125 L 59.578125 8.8125 L 57.75 8.8125 L 57.609375 8.390625 L 57.421875 8.0625 L 57.1875 7.828125 L 56.8125 7.640625 L 56.625 7.59375 L 55.96875 7.59375 L 55.453125 7.78125 L 55.21875 7.96875 L 55.03125 8.4375 L 55.03125 8.90625 L 55.171875 9.28125 L 55.546875 9.609375 L 56.296875 9.9375 L 57.65625 10.40625 L 58.546875 10.828125 L 59.109375 11.25 L 59.4375 11.625 L 59.71875 12.1875 L 59.8125 12.609375 L 59.8125 13.453125 L 59.671875 14.015625 L 59.390625 14.578125 L 58.96875 15.046875 L 58.546875 15.375 L 57.9375 15.65625 L 57.046875 15.84375 L 55.78125 15.84375 L 54.984375 15.65625 L 54.234375 15.28125 L 53.859375 15 L 53.53125 14.671875 L 53.25 14.203125 L 53.0625 13.78125 L 52.96875 13.359375 L 52.921875 12.84375 L 54.75 12.84375 L 54.796875 12.890625 L 54.890625 13.359375 L 55.078125 13.734375 L 55.265625 13.96875 L 55.734375 14.25 L 56.0625 14.34375 L 56.625 14.390625 L 57.140625 14.296875 L 57.515625 14.109375 L 57.84375 13.734375 L 57.9375 13.40625 L 57.9375 12.890625 L 57.75 12.46875 L 57.515625 12.234375 L 57.09375 11.953125 L 55.21875 11.296875 L 54.421875 10.921875 L 53.859375 10.5 L 53.484375 10.078125 L 53.25 9.515625 L 53.15625 8.90625 L 53.203125 8.25 L 53.390625 7.640625 L 53.71875 7.125 L 54.046875 6.796875 L 54.5625 6.46875 L 55.125 6.234375 Z M 55.96875 6.09375 "
		/>
<path
			style=" stroke:none;fill-rule:nonzero;fill:rgb(37.254903%,97.647059%,2.352941%);fill-opacity:1;"
			d="M 25.921875 6.28125 L 32.109375 6.28125 L 32.109375 7.59375 L 32.0625 7.640625 L 27.65625 7.640625 L 27.65625 10.21875 L 31.640625 10.21875 L 31.6875 10.265625 L 31.6875 11.578125 L 27.65625 11.578125 L 27.65625 14.296875 L 32.0625 14.296875 L 32.109375 14.34375 L 32.109375 15.65625 L 32.0625 15.703125 L 25.96875 15.703125 L 25.921875 15.65625 Z M 25.921875 6.28125 "
		/>
<path
			style=" stroke:none;fill-rule:nonzero;fill:rgb(37.254903%,97.647059%,2.352941%);fill-opacity:1;"
			d="M 41.109375 6.234375 L 41.203125 6.234375 L 41.109375 6.46875 L 40.40625 7.59375 L 39.796875 8.578125 L 39.09375 9.703125 L 38.34375 10.921875 L 38.390625 11.15625 L 38.90625 12 L 39.703125 13.21875 L 40.453125 14.390625 L 41.15625 15.46875 L 41.25 15.703125 L 39.28125 15.703125 L 38.25 14.109375 L 37.59375 13.078125 L 37.171875 12.421875 L 37.03125 12.609375 L 36.328125 13.828125 L 35.671875 14.953125 L 35.203125 15.703125 L 33.28125 15.703125 L 33.375 15.46875 L 33.9375 14.578125 L 34.6875 13.359375 L 35.90625 11.390625 L 36.140625 11.015625 L 36.09375 10.78125 L 35.625 10.03125 L 34.875 8.859375 L 34.359375 8.0625 L 33.609375 6.890625 L 33.234375 6.328125 L 33.234375 6.28125 L 35.25 6.28125 L 35.8125 7.171875 L 36.515625 8.25 L 37.265625 9.421875 L 37.359375 9.46875 L 38.0625 8.25 L 38.765625 7.078125 L 39.234375 6.28125 Z M 41.109375 6.234375 "
		/>
</g>
</svg>
