<?xml version="1.0" encoding="UTF-8"?>
<svg xmlns="http://www.w3.org/2000/svg" xmlns:xlink="http://www.w3.org/1999/xlink" width="30px" height="30px" viewBox="0 0 30 30" version="1.1">
<g id="surface1">
<path style=" stroke:none;fill-rule:nonzero;fill:rgb(36.078432%,95.686275%,3.137255%);fill-opacity:1;" d="M 10.710938 4.753906 L 18.644531 4.753906 L 18.898438 4.769531 L 19.003906 4.921875 L 19.214844 5.28125 L 19.605469 5.96875 L 19.859375 6.40625 L 20.070312 6.765625 L 20.308594 7.183594 L 20.730469 7.90625 L 20.878906 8.175781 L 21.058594 8.488281 L 21.253906 8.820312 L 21.496094 9.238281 L 21.71875 9.628906 L 21.929688 9.988281 L 22.15625 10.378906 L 22.351562 10.726562 L 22.484375 10.949219 L 22.679688 11.296875 L 22.859375 11.609375 L 22.996094 11.851562 L 22.980469 11.953125 L 22.769531 12.328125 L 22.589844 12.644531 L 22.394531 12.976562 L 22.183594 13.335938 L 21.988281 13.679688 L 21.796875 14.011719 L 21.585938 14.371094 L 21.375 14.746094 L 21.253906 14.953125 L 21.046875 15.316406 L 20.953125 15.480469 L 20.96875 15.570312 L 21.121094 15.839844 L 21.253906 16.066406 L 21.734375 16.90625 L 21.976562 17.308594 L 22.171875 17.65625 L 22.410156 18.074219 L 22.546875 18.300781 L 22.785156 18.71875 L 22.933594 18.988281 L 22.949219 19.09375 L 22.859375 19.246094 L 22.769531 19.410156 L 22.636719 19.648438 L 22.515625 19.859375 L 22.273438 20.265625 L 22.140625 20.503906 L 21.976562 20.789062 L 21.765625 21.148438 L 21.511719 21.585938 L 21.359375 21.855469 L 21.105469 22.289062 L 20.894531 22.648438 L 20.59375 23.175781 L 20.371094 23.550781 L 20.144531 23.953125 L 19.933594 24.316406 L 19.816406 24.523438 L 19.679688 24.75 L 19.441406 25.171875 L 19.246094 25.515625 L 19.125 25.726562 L 18.914062 26.070312 L 18.855469 26.144531 L 18.824219 26.160156 L 11.011719 26.175781 L 10.664062 26.160156 L 10.574219 26.054688 L 10.320312 25.621094 L 10.109375 25.261719 L 9.929688 24.929688 L 9.703125 24.554688 L 9.105469 23.503906 L 8.96875 23.28125 L 8.746094 22.890625 L 8.535156 22.53125 L 8.339844 22.183594 L 8.175781 21.898438 L 7.980469 21.554688 L 7.769531 21.195312 L 7.605469 20.910156 L 7.453125 20.65625 L 7.261719 20.308594 L 7.109375 20.054688 L 6.898438 19.695312 L 6.75 19.441406 L 6.554688 19.09375 L 6.539062 19.050781 L 6.703125 18.734375 L 6.914062 18.375 L 7.109375 18.046875 L 7.46875 17.414062 L 7.621094 17.160156 L 7.753906 16.933594 L 7.980469 16.546875 L 8.144531 16.261719 L 8.386719 15.855469 L 8.566406 15.554688 L 8.625 15.421875 L 8.429688 15.074219 L 8.191406 14.671875 L 7.980469 14.296875 L 7.769531 13.933594 L 7.515625 13.5 L 7.289062 13.09375 L 7.078125 12.734375 L 6.824219 12.300781 L 6.660156 12.015625 L 6.601562 11.910156 L 6.613281 11.820312 L 6.765625 11.550781 L 6.945312 11.234375 L 7.140625 10.90625 L 7.261719 10.695312 L 7.453125 10.351562 L 7.664062 9.988281 L 7.84375 9.675781 L 8.070312 9.285156 L 8.28125 8.925781 L 8.398438 8.714844 L 8.550781 8.460938 L 8.761719 8.101562 L 8.96875 7.726562 L 9.164062 7.394531 L 9.285156 7.183594 L 9.480469 6.839844 L 9.601562 6.644531 L 9.796875 6.300781 L 10.003906 5.941406 L 10.230469 5.535156 L 10.425781 5.203125 L 10.589844 4.921875 L 10.695312 4.769531 Z M 11.625 5.535156 L 11.578125 5.550781 L 11.566406 5.640625 L 11.488281 7.410156 L 11.460938 8.144531 L 11.371094 10.320312 L 11.308594 11.773438 L 11.308594 11.953125 L 11.324219 11.96875 L 16.5 11.96875 L 18.074219 11.953125 L 18.089844 11.386719 L 18.089844 10.558594 L 18.074219 7.378906 L 18.058594 5.550781 L 18.046875 5.535156 Z M 18.855469 6.300781 L 18.839844 6.316406 L 18.839844 7.726562 L 18.855469 11.265625 L 18.871094 11.96875 L 19.050781 12.269531 L 19.199219 12.523438 L 19.425781 12.914062 L 19.664062 13.335938 L 19.875 13.695312 L 20.023438 13.964844 L 20.386719 14.59375 L 20.476562 14.699219 L 20.535156 14.640625 L 20.953125 13.90625 L 21.164062 13.53125 L 21.300781 13.304688 L 21.496094 12.960938 L 21.703125 12.601562 L 21.960938 12.164062 L 22.078125 11.953125 L 22.09375 11.851562 L 21.976562 11.609375 L 21.839844 11.386719 L 21.585938 10.949219 L 21.34375 10.53125 L 20.445312 8.96875 L 20.296875 8.714844 L 19.816406 7.875 L 19.621094 7.546875 L 19.410156 7.171875 L 19.261719 6.914062 L 19.109375 6.644531 L 18.914062 6.328125 Z M 10.726562 6.316406 L 10.664062 6.375 L 10.410156 6.796875 L 10.199219 7.15625 L 10.003906 7.5 L 9.886719 7.726562 L 9.691406 8.054688 L 9.511719 8.371094 L 9.375 8.59375 L 9.179688 8.941406 L 8.941406 9.34375 L 8.730469 9.71875 L 8.519531 10.078125 L 8.398438 10.289062 L 8.265625 10.515625 L 8.054688 10.890625 L 7.90625 11.144531 L 7.695312 11.519531 L 7.546875 11.761719 L 7.5 11.851562 L 7.515625 11.941406 L 7.664062 12.210938 L 7.785156 12.40625 L 7.980469 12.75 L 8.160156 13.066406 L 8.324219 13.351562 L 8.460938 13.574219 L 8.683594 13.980469 L 9.046875 14.609375 L 9.089844 14.640625 L 9.195312 14.503906 L 9.390625 14.144531 L 9.808594 13.425781 L 9.988281 13.109375 L 10.214844 12.71875 L 10.410156 12.390625 L 10.5 12.226562 L 10.515625 12.136719 L 10.621094 9.75 L 10.710938 7.664062 L 10.753906 6.464844 L 10.753906 6.328125 Z M 11.820312 12.703125 L 11.789062 12.734375 L 11.894531 12.855469 L 12.148438 13.035156 L 12.40625 13.230469 L 12.613281 13.378906 L 14.113281 14.503906 L 14.398438 14.714844 L 14.671875 14.910156 L 14.746094 14.953125 L 14.804688 14.941406 L 15.089844 14.730469 L 15.40625 14.488281 L 15.691406 14.28125 L 15.960938 14.070312 L 16.246094 13.859375 L 16.441406 13.710938 L 16.695312 13.515625 L 16.980469 13.304688 L 17.296875 13.066406 L 17.59375 12.839844 L 17.671875 12.75 L 17.671875 12.71875 L 14.503906 12.703125 Z M 10.875 13.078125 L 10.753906 13.273438 L 10.621094 13.53125 L 10.410156 13.890625 L 10.15625 14.324219 L 9.945312 14.699219 L 9.75 15.03125 L 9.585938 15.316406 L 9.539062 15.433594 L 9.675781 15.691406 L 9.886719 16.050781 L 10.09375 16.425781 L 10.304688 16.785156 L 10.46875 17.070312 L 10.679688 17.429688 L 10.875 17.789062 L 10.90625 17.835938 L 10.996094 17.820312 L 11.191406 17.671875 L 11.371094 17.535156 L 11.683594 17.296875 L 11.863281 17.160156 L 12.058594 17.011719 L 12.34375 16.800781 L 12.539062 16.648438 L 12.78125 16.46875 L 13.050781 16.261719 L 13.273438 16.09375 L 13.546875 15.898438 L 13.800781 15.703125 L 14.039062 15.511719 L 14.070312 15.480469 L 14.054688 15.421875 L 13.828125 15.238281 L 13.558594 15.046875 L 13.304688 14.851562 L 13.050781 14.671875 L 12.855469 14.519531 L 12.613281 14.339844 L 12.359375 14.144531 L 12.089844 13.949219 L 11.894531 13.800781 L 11.609375 13.589844 L 11.414062 13.441406 L 11.128906 13.230469 L 10.921875 13.078125 Z M 18.585938 13.066406 L 18.449219 13.15625 L 18 13.5 L 17.746094 13.695312 L 17.460938 13.90625 L 17.203125 14.101562 L 17.039062 14.21875 L 16.828125 14.386719 L 16.636719 14.535156 L 16.394531 14.714844 L 16.230469 14.835938 L 15.988281 15.015625 L 15.675781 15.253906 L 15.464844 15.421875 L 15.433594 15.464844 L 15.628906 15.628906 L 15.824219 15.78125 L 16.066406 15.960938 L 16.335938 16.15625 L 16.621094 16.363281 L 16.769531 16.484375 L 16.996094 16.648438 L 17.28125 16.859375 L 17.535156 17.054688 L 17.773438 17.234375 L 18.046875 17.429688 L 18.34375 17.65625 L 18.511719 17.773438 L 18.613281 17.851562 L 18.675781 17.851562 L 18.808594 17.625 L 19.003906 17.28125 L 19.214844 16.921875 L 19.441406 16.53125 L 19.574219 16.289062 L 19.738281 16.003906 L 19.921875 15.703125 L 20.011719 15.523438 L 19.980469 15.421875 L 19.738281 15.015625 L 19.589844 14.761719 L 19.394531 14.414062 L 19.246094 14.160156 L 19.019531 13.769531 L 18.898438 13.558594 L 18.703125 13.199219 L 18.601562 13.066406 Z M 14.730469 15.960938 L 14.550781 16.09375 L 14.160156 16.394531 L 13.949219 16.558594 L 13.664062 16.769531 L 13.46875 16.921875 L 12.988281 17.28125 L 12.703125 17.488281 L 12.390625 17.730469 L 12.210938 17.863281 L 11.820312 18.164062 L 11.820312 18.210938 L 17.730469 18.210938 L 17.699219 18.148438 L 17.550781 18.015625 L 17.308594 17.835938 L 16.996094 17.59375 L 16.710938 17.386719 L 16.453125 17.203125 L 16.199219 17.011719 L 15.929688 16.816406 L 15.734375 16.664062 L 15.449219 16.453125 L 15.226562 16.273438 L 15.015625 16.125 L 14.804688 15.960938 Z M 9.058594 16.214844 L 8.941406 16.410156 L 8.761719 16.738281 L 8.566406 17.085938 L 8.339844 17.476562 L 8.175781 17.761719 L 7.949219 18.148438 L 7.738281 18.523438 L 7.558594 18.808594 L 7.441406 19.050781 L 7.558594 19.289062 L 7.738281 19.589844 L 8.160156 20.324219 L 8.386719 20.714844 L 8.535156 20.96875 L 8.730469 21.316406 L 8.894531 21.601562 L 9.148438 22.035156 L 9.601562 22.816406 L 9.839844 23.234375 L 10.035156 23.578125 L 10.273438 24 L 10.515625 24.40625 L 10.574219 24.480469 L 10.621094 24.480469 L 10.605469 23.324219 L 10.589844 22.589844 L 10.558594 20.625 L 10.53125 18.71875 L 10.410156 18.480469 L 10.15625 18.058594 L 9.960938 17.699219 L 9.765625 17.371094 L 9.523438 16.949219 L 9.375 16.695312 L 9.285156 16.515625 L 9.121094 16.246094 Z M 20.460938 16.320312 L 20.355469 16.46875 L 20.113281 16.890625 L 19.890625 17.296875 L 19.710938 17.59375 L 19.53125 17.910156 L 19.078125 18.691406 L 18.945312 18.914062 L 18.898438 19.003906 L 18.886719 19.125 L 18.796875 21.554688 L 18.691406 24.253906 L 18.675781 24.824219 L 18.71875 24.824219 L 18.78125 24.75 L 18.929688 24.480469 L 19.125 24.164062 L 19.230469 23.984375 L 19.320312 23.820312 L 19.546875 23.414062 L 19.726562 23.101562 L 19.964844 22.695312 L 20.175781 22.320312 L 20.355469 22.003906 L 20.640625 21.523438 L 20.835938 21.179688 L 21.253906 20.460938 L 21.449219 20.113281 L 21.660156 19.753906 L 21.886719 19.363281 L 22.019531 19.140625 L 22.035156 19.003906 L 21.945312 18.824219 L 21.765625 18.523438 L 21.539062 18.136719 L 21.328125 17.773438 L 20.96875 17.144531 L 20.773438 16.800781 L 20.566406 16.425781 L 20.488281 16.320312 Z M 11.339844 19.003906 L 11.324219 19.019531 L 11.324219 19.785156 L 11.339844 20.953125 L 11.371094 22.648438 L 11.386719 23.59375 L 11.429688 25.394531 L 17.804688 25.394531 L 17.851562 25.378906 L 17.863281 25.304688 L 17.894531 24.734375 L 18 22.304688 L 18.074219 20.355469 L 18.121094 19.304688 L 18.121094 19.019531 L 18.105469 19.003906 Z M 11.339844 19.003906 "/>
<path style=" stroke:none;fill-rule:nonzero;fill:rgb(29.411766%,88.235295%,1.176471%);fill-opacity:1;" d="M 9.703125 6.464844 L 9.75 6.480469 L 9.675781 6.660156 L 9.628906 6.78125 L 9.554688 6.898438 L 9.523438 6.914062 L 9.511719 6.976562 L 9.480469 6.988281 L 9.480469 7.035156 L 9.449219 7.035156 L 9.449219 7.066406 L 9.421875 7.066406 L 9.390625 7.15625 L 9.328125 7.289062 L 9.285156 7.289062 L 9.269531 7.378906 L 9.226562 7.394531 L 9.195312 7.515625 L 9.164062 7.546875 L 9.148438 7.605469 L 9.121094 7.605469 L 9.089844 7.695312 L 9.046875 7.769531 L 9.03125 7.816406 L 8.984375 7.816406 L 8.953125 7.890625 L 8.835938 8.128906 L 8.804688 8.128906 L 8.789062 8.21875 L 8.714844 8.324219 L 8.683594 8.414062 L 8.625 8.476562 L 8.609375 8.535156 L 8.578125 8.535156 L 8.566406 8.640625 L 8.503906 8.671875 L 8.460938 8.820312 L 8.429688 8.820312 L 8.414062 8.894531 L 8.386719 8.953125 L 8.324219 9.03125 L 8.308594 9.089844 L 8.265625 9.136719 L 8.25 9.179688 L 8.21875 9.179688 L 8.21875 9.210938 L 8.175781 9.210938 L 8.160156 9.269531 L 8.128906 9.269531 L 8.128906 9.300781 L 8.085938 9.34375 L 8.070312 9.464844 L 8.011719 9.496094 L 7.996094 9.570312 L 7.980469 9.613281 L 7.949219 9.613281 L 7.949219 9.660156 L 7.921875 9.660156 L 7.890625 9.765625 L 7.875 9.808594 L 7.84375 9.808594 L 7.828125 9.914062 L 7.785156 9.960938 L 7.769531 9.988281 L 7.738281 9.988281 L 7.710938 10.050781 L 7.648438 10.199219 L 7.605469 10.261719 L 7.558594 10.363281 L 7.53125 10.363281 L 7.515625 10.453125 L 7.484375 10.453125 L 7.453125 10.558594 L 7.394531 10.636719 L 7.351562 10.695312 L 7.320312 10.695312 L 7.304688 10.785156 L 7.289062 10.816406 L 7.261719 10.816406 L 7.246094 10.90625 L 7.15625 10.964844 L 7.09375 11.101562 L 7.09375 11.144531 L 7.035156 11.296875 L 7.003906 11.296875 L 6.976562 11.371094 L 6.929688 11.429688 L 6.886719 11.503906 L 6.855469 11.503906 L 6.855469 11.535156 L 6.808594 11.578125 L 6.808594 11.625 L 6.765625 11.65625 L 6.75 11.730469 L 6.71875 11.789062 L 6.75 11.851562 L 6.75 11.894531 L 6.765625 12.03125 L 6.765625 12.105469 L 6.808594 12.121094 L 6.808594 12.210938 L 6.855469 12.210938 L 6.871094 12.253906 L 6.898438 12.269531 L 6.945312 12.34375 L 6.945312 12.390625 L 7.019531 12.433594 L 7.066406 12.496094 L 7.09375 12.480469 L 7.109375 12.585938 L 7.171875 12.691406 L 7.199219 12.691406 L 7.230469 12.75 L 7.246094 12.824219 L 7.289062 12.839844 L 7.273438 12.914062 L 7.351562 13.019531 L 7.363281 13.003906 L 7.425781 13.066406 L 7.515625 13.246094 L 7.515625 13.304688 L 7.53125 13.335938 L 7.558594 13.335938 L 7.558594 13.363281 L 7.589844 13.363281 L 7.574219 13.394531 L 7.558594 13.410156 L 7.679688 13.441406 L 7.726562 13.546875 L 7.769531 13.636719 L 7.753906 13.679688 L 7.753906 13.769531 L 7.785156 13.769531 L 7.785156 13.800781 L 7.859375 13.828125 L 7.90625 13.890625 L 7.921875 13.980469 L 7.964844 14.023438 L 7.996094 14.085938 L 7.996094 14.128906 L 8.023438 14.128906 L 8.023438 14.160156 L 8.054688 14.160156 L 8.101562 14.25 L 8.101562 14.296875 L 8.128906 14.296875 L 8.191406 14.445312 L 8.191406 14.476562 L 8.234375 14.476562 L 8.308594 14.609375 L 8.324219 14.699219 L 8.355469 14.714844 L 8.429688 14.835938 L 8.386719 14.851562 L 8.414062 14.925781 L 8.445312 14.941406 L 8.445312 14.984375 L 8.476562 14.984375 L 8.488281 15 L 8.503906 14.96875 L 8.566406 15.046875 L 8.566406 15.074219 L 8.59375 15.089844 L 8.578125 15.148438 L 8.625 15.148438 L 8.671875 15.226562 L 8.671875 15.253906 L 8.714844 15.269531 L 8.730469 15.40625 L 8.671875 15.464844 L 8.683594 15.539062 L 8.640625 15.585938 L 8.609375 15.675781 L 8.566406 15.734375 L 8.550781 15.796875 L 8.503906 15.796875 L 8.488281 15.855469 L 8.445312 15.886719 L 8.429688 15.929688 L 8.398438 15.929688 L 8.386719 16.003906 L 8.21875 16.230469 L 8.160156 16.351562 L 8.128906 16.441406 L 8.085938 16.5 L 8.054688 16.574219 L 8.023438 16.574219 L 8.011719 16.648438 L 7.996094 16.679688 L 7.964844 16.679688 L 7.949219 16.769531 L 7.90625 16.828125 L 7.890625 16.90625 L 7.859375 16.949219 L 7.785156 17.054688 L 7.769531 17.113281 L 7.726562 17.160156 L 7.605469 17.324219 L 7.574219 17.414062 L 7.53125 17.460938 L 7.5 17.503906 L 7.46875 17.535156 L 7.453125 17.578125 L 7.425781 17.578125 L 7.410156 17.683594 L 7.363281 17.789062 L 7.335938 17.863281 L 7.230469 18 L 7.183594 18.089844 L 7.15625 18.136719 L 7.125 18.136719 L 7.109375 18.195312 L 7.09375 18.238281 L 7.003906 18.316406 L 6.988281 18.449219 L 6.914062 18.554688 L 6.855469 18.613281 L 6.855469 18.644531 L 6.808594 18.675781 L 6.75 18.871094 L 6.703125 18.914062 L 6.675781 19.050781 L 6.675781 19.171875 L 6.71875 19.199219 L 6.75 19.261719 L 6.824219 19.394531 L 6.824219 19.425781 L 6.855469 19.425781 L 6.886719 19.515625 L 6.871094 19.546875 L 6.929688 19.558594 L 6.945312 19.648438 L 6.988281 19.695312 L 7.050781 19.769531 L 7.066406 19.828125 L 7.078125 19.800781 L 7.109375 19.828125 L 7.109375 19.90625 L 7.15625 19.921875 L 7.214844 20.011719 L 7.261719 20.101562 L 7.351562 20.296875 L 7.351562 20.324219 L 7.378906 20.324219 L 7.378906 20.355469 L 7.441406 20.371094 L 7.425781 20.429688 L 7.453125 20.429688 L 7.515625 20.414062 L 7.53125 20.476562 L 7.574219 20.550781 L 7.589844 20.609375 L 7.546875 20.59375 L 7.546875 20.671875 L 7.621094 20.699219 L 7.664062 20.773438 L 7.753906 20.910156 L 7.800781 20.96875 L 7.84375 21.058594 L 7.84375 21.089844 L 7.875 21.105469 L 7.90625 21.226562 L 7.933594 21.238281 L 7.964844 21.390625 L 8.011719 21.40625 L 8.023438 21.523438 L 8.070312 21.539062 L 8.085938 21.601562 L 8.113281 21.601562 L 8.113281 21.644531 L 8.144531 21.660156 L 8.203125 21.765625 L 8.25 21.886719 L 8.296875 21.945312 L 8.339844 22.035156 L 8.414062 22.066406 L 8.414062 22.125 L 8.445312 22.125 L 8.476562 22.183594 L 8.488281 22.320312 L 8.535156 22.320312 L 8.566406 22.441406 L 8.609375 22.484375 L 8.65625 22.574219 L 8.65625 22.605469 L 8.683594 22.605469 L 8.683594 22.648438 L 8.730469 22.664062 L 8.761719 22.738281 L 8.746094 22.769531 L 8.789062 22.769531 L 8.804688 22.828125 L 8.894531 22.996094 L 8.96875 23.113281 L 8.96875 23.175781 L 9.015625 23.175781 L 9.015625 23.203125 L 9.046875 23.21875 L 9.046875 23.28125 L 9.148438 23.355469 L 9.179688 23.355469 L 9.179688 23.398438 L 9.210938 23.398438 L 9.238281 23.519531 L 9.269531 23.535156 L 9.253906 23.609375 L 9.300781 23.625 L 9.328125 23.699219 L 9.300781 23.714844 L 9.300781 23.671875 L 9.285156 23.683594 L 9.328125 23.820312 L 9.375 23.820312 L 9.40625 23.894531 L 9.433594 23.894531 L 9.464844 23.984375 L 9.511719 24.03125 L 9.523438 24.105469 L 9.585938 24.179688 L 9.570312 24.269531 L 9.539062 24.269531 L 9.148438 23.578125 L 8.96875 23.28125 L 8.746094 22.890625 L 8.535156 22.53125 L 8.339844 22.183594 L 8.175781 21.898438 L 7.980469 21.554688 L 7.769531 21.195312 L 7.605469 20.910156 L 7.453125 20.65625 L 7.261719 20.308594 L 7.109375 20.054688 L 6.898438 19.695312 L 6.75 19.441406 L 6.554688 19.09375 L 6.539062 19.050781 L 6.703125 18.734375 L 6.914062 18.375 L 7.109375 18.046875 L 7.46875 17.414062 L 7.621094 17.160156 L 7.753906 16.933594 L 7.980469 16.546875 L 8.144531 16.261719 L 8.386719 15.855469 L 8.566406 15.554688 L 8.625 15.421875 L 8.429688 15.074219 L 8.191406 14.671875 L 7.980469 14.296875 L 7.769531 13.933594 L 7.515625 13.5 L 7.289062 13.09375 L 7.078125 12.734375 L 6.824219 12.300781 L 6.660156 12.015625 L 6.601562 11.910156 L 6.613281 11.820312 L 6.765625 11.550781 L 6.945312 11.234375 L 7.140625 10.90625 L 7.261719 10.695312 L 7.453125 10.351562 L 7.664062 9.988281 L 7.84375 9.675781 L 8.070312 9.285156 L 8.28125 8.925781 L 8.398438 8.714844 L 8.550781 8.460938 L 8.761719 8.101562 L 8.96875 7.726562 L 9.164062 7.394531 L 9.285156 7.183594 L 9.480469 6.839844 L 9.601562 6.644531 Z M 9.703125 6.464844 "/>
<path style=" stroke:none;fill-rule:nonzero;fill:rgb(29.411766%,88.235295%,1.176471%);fill-opacity:1;" d="M 10.695312 6.238281 L 10.816406 6.253906 L 10.816406 6.539062 L 10.785156 6.75 L 10.816406 6.796875 L 10.828125 6.945312 L 10.800781 6.945312 L 10.800781 7.035156 L 10.816406 7.078125 L 10.800781 7.171875 L 10.800781 7.214844 L 10.828125 7.363281 L 10.800781 7.425781 L 10.816406 7.515625 L 10.800781 7.621094 L 10.785156 7.828125 L 10.769531 7.890625 L 10.785156 7.996094 L 10.769531 8.023438 L 10.785156 8.128906 L 10.769531 8.191406 L 10.800781 8.398438 L 10.785156 8.445312 L 10.753906 8.460938 L 10.769531 8.578125 L 10.738281 8.683594 L 10.738281 8.96875 L 10.753906 9.046875 L 10.738281 9.136719 L 10.753906 9.300781 L 10.769531 9.328125 L 10.753906 9.433594 L 10.769531 9.511719 L 10.738281 9.613281 L 10.710938 9.613281 L 10.695312 9.75 L 10.648438 9.855469 L 10.664062 10.050781 L 10.679688 10.09375 L 10.664062 10.273438 L 10.679688 10.484375 L 10.679688 10.574219 L 10.648438 10.664062 L 10.621094 10.875 L 10.621094 11.039062 L 10.648438 11.054688 L 10.621094 11.054688 L 10.636719 11.113281 L 10.621094 11.160156 L 10.664062 11.175781 L 10.679688 11.324219 L 10.648438 11.398438 L 10.664062 11.460938 L 10.648438 11.503906 L 10.621094 11.503906 L 10.621094 11.773438 L 10.589844 12.03125 L 10.574219 12.121094 L 10.574219 12.253906 L 10.5 12.375 L 10.453125 12.449219 L 10.394531 12.585938 L 10.351562 12.601562 L 10.246094 12.78125 L 10.230469 12.839844 L 10.183594 12.855469 L 10.171875 12.960938 L 10.140625 12.976562 L 10.078125 13.109375 L 10.019531 13.214844 L 9.988281 13.261719 L 9.960938 13.261719 L 9.914062 13.410156 L 9.898438 13.453125 L 9.871094 13.453125 L 9.855469 13.5 L 9.824219 13.484375 L 9.824219 13.546875 L 9.796875 13.546875 L 9.765625 13.621094 L 9.734375 13.621094 L 9.71875 13.679688 L 9.660156 13.84375 L 9.570312 13.949219 L 9.539062 13.949219 L 9.539062 13.980469 L 9.511719 13.980469 L 9.511719 14.085938 L 9.449219 14.160156 L 9.433594 14.191406 L 9.40625 14.191406 L 9.40625 14.234375 L 9.34375 14.296875 L 9.316406 14.296875 L 9.328125 14.414062 L 9.253906 14.503906 L 9.195312 14.609375 L 9.121094 14.65625 L 9.03125 14.65625 L 8.96875 14.578125 L 8.941406 14.488281 L 8.910156 14.488281 L 8.878906 14.414062 L 8.878906 14.371094 L 8.851562 14.371094 L 8.773438 14.234375 L 8.761719 14.144531 L 8.714844 14.128906 L 8.683594 14.054688 L 8.65625 14.039062 L 8.625 13.949219 L 8.59375 13.964844 L 8.59375 13.890625 L 8.566406 13.890625 L 8.578125 13.816406 L 8.535156 13.800781 L 8.488281 13.738281 L 8.488281 13.695312 L 8.460938 13.679688 L 8.414062 13.621094 L 8.339844 13.46875 L 8.308594 13.453125 L 8.308594 13.394531 L 8.28125 13.394531 L 8.191406 13.230469 L 8.160156 13.125 L 8.101562 13.050781 L 8.011719 12.886719 L 8.011719 12.855469 L 7.949219 12.824219 L 7.921875 12.734375 L 7.875 12.660156 L 7.816406 12.601562 L 7.769531 12.511719 L 7.753906 12.433594 L 7.726562 12.421875 L 7.695312 12.34375 L 7.695312 12.285156 L 7.648438 12.269531 L 7.605469 12.195312 L 7.574219 12.179688 L 7.574219 12.136719 L 7.53125 12.121094 L 7.46875 11.941406 L 7.453125 11.835938 L 7.515625 11.699219 L 7.546875 11.671875 L 7.546875 11.640625 L 7.574219 11.625 L 7.574219 11.578125 L 7.621094 11.550781 L 7.605469 11.519531 L 7.636719 11.488281 L 7.648438 11.429688 L 7.695312 11.386719 L 7.710938 11.308594 L 7.738281 11.308594 L 7.769531 11.234375 L 7.800781 11.144531 L 7.84375 11.160156 L 7.875 11.054688 L 7.90625 11.039062 L 7.933594 10.964844 L 8.023438 10.785156 L 8.070312 10.785156 L 8.054688 10.738281 L 8.085938 10.679688 L 8.113281 10.679688 L 8.144531 10.589844 L 8.175781 10.574219 L 8.191406 10.5 L 8.21875 10.515625 L 8.234375 10.53125 L 8.25 10.425781 L 8.28125 10.425781 L 8.339844 10.273438 L 8.371094 10.261719 L 8.398438 10.199219 L 8.429688 10.171875 L 8.429688 10.125 L 8.488281 10.050781 L 8.519531 9.976562 L 8.578125 9.855469 L 8.65625 9.75 L 8.683594 9.75 L 8.683594 9.675781 L 8.746094 9.613281 L 8.730469 9.570312 L 8.761719 9.511719 L 8.820312 9.480469 L 8.863281 9.40625 L 8.910156 9.34375 L 8.941406 9.238281 L 8.953125 9.238281 L 8.96875 9.164062 L 9.03125 9.121094 L 9.046875 9.074219 L 9.089844 9.089844 L 9.058594 9.164062 L 8.851562 9.539062 L 8.640625 9.898438 L 8.414062 10.289062 L 8.28125 10.515625 L 8.070312 10.890625 L 7.921875 11.144531 L 7.710938 11.519531 L 7.558594 11.761719 L 7.515625 11.851562 L 7.53125 11.941406 L 7.679688 12.210938 L 7.800781 12.40625 L 7.996094 12.75 L 8.175781 13.066406 L 8.339844 13.351562 L 8.476562 13.574219 L 8.699219 13.980469 L 9.058594 14.609375 L 9.105469 14.609375 L 9.210938 14.445312 L 9.433594 14.039062 L 9.644531 13.679688 L 9.898438 13.246094 L 10.140625 12.824219 L 10.394531 12.390625 L 10.484375 12.226562 L 10.5 12.136719 L 10.605469 9.75 L 10.695312 7.664062 L 10.738281 6.464844 L 10.738281 6.328125 L 10.695312 6.328125 L 10.664062 6.40625 L 10.515625 6.644531 L 10.351562 6.929688 L 10.335938 6.929688 L 10.335938 6.839844 L 10.363281 6.78125 L 10.410156 6.734375 L 10.441406 6.734375 L 10.453125 6.675781 L 10.558594 6.496094 L 10.589844 6.421875 L 10.636719 6.359375 L 10.664062 6.269531 L 10.695312 6.269531 Z M 10.695312 6.238281 "/>
<path style=" stroke:none;fill-rule:nonzero;fill:rgb(29.411766%,88.235295%,1.176471%);fill-opacity:1;" d="M 20.460938 16.230469 L 20.535156 16.246094 L 20.535156 16.273438 L 20.59375 16.289062 L 20.625 16.363281 L 20.625 16.410156 L 20.65625 16.46875 L 20.683594 16.484375 L 20.683594 16.53125 L 20.714844 16.53125 L 20.746094 16.589844 L 20.789062 16.664062 L 20.804688 16.726562 L 20.851562 16.738281 L 20.878906 16.816406 L 20.941406 16.84375 L 20.925781 16.890625 L 20.953125 16.890625 L 20.984375 16.949219 L 21.03125 16.996094 L 21.03125 17.039062 L 21.058594 17.054688 L 21.105469 17.113281 L 21.121094 17.191406 L 21.148438 17.21875 L 21.164062 17.265625 L 21.210938 17.296875 L 21.226562 17.386719 L 21.269531 17.398438 L 21.285156 17.476562 L 21.328125 17.519531 L 21.34375 17.578125 L 21.375 17.578125 L 21.390625 17.640625 L 21.421875 17.640625 L 21.433594 17.730469 L 21.464844 17.730469 L 21.570312 17.941406 L 21.628906 18.046875 L 21.660156 18.058594 L 21.691406 18.148438 L 21.734375 18.195312 L 21.734375 18.226562 L 21.765625 18.226562 L 21.765625 18.269531 L 21.796875 18.269531 L 21.839844 18.328125 L 21.914062 18.480469 L 21.945312 18.585938 L 21.976562 18.613281 L 21.976562 18.660156 L 22.003906 18.660156 L 22.019531 18.75 L 22.050781 18.75 L 22.050781 18.808594 L 22.078125 18.824219 L 22.15625 19.050781 L 22.125 19.125 L 22.09375 19.140625 L 22.035156 19.261719 L 22.003906 19.261719 L 21.976562 19.394531 L 21.929688 19.410156 L 21.929688 19.484375 L 21.898438 19.5 L 21.871094 19.589844 L 21.839844 19.605469 L 21.855469 19.664062 L 21.765625 19.785156 L 21.734375 19.785156 L 21.71875 19.875 L 21.613281 20.011719 L 21.585938 20.011719 L 21.585938 20.054688 L 21.523438 20.113281 L 21.496094 20.203125 L 21.464844 20.21875 L 21.433594 20.308594 L 21.375 20.386719 L 21.316406 20.519531 L 21.285156 20.578125 L 21.210938 20.65625 L 21.148438 20.789062 L 21.121094 20.789062 L 21.089844 20.878906 L 21.03125 20.96875 L 21 21.03125 L 21 21.074219 L 20.96875 21.164062 L 20.925781 21.195312 L 20.863281 21.316406 L 20.820312 21.359375 L 20.789062 21.359375 L 20.789062 21.421875 L 20.746094 21.464844 L 20.699219 21.570312 L 20.671875 21.570312 L 20.65625 21.628906 L 20.640625 21.660156 L 20.671875 21.660156 L 20.65625 21.71875 L 20.625 21.71875 L 20.609375 21.796875 L 20.566406 21.796875 L 20.550781 21.855469 L 20.519531 21.855469 L 20.488281 21.960938 L 20.445312 21.976562 L 20.429688 22.035156 L 20.386719 22.140625 L 20.339844 22.171875 L 20.308594 22.261719 L 20.28125 22.320312 L 20.25 22.320312 L 20.234375 22.394531 L 20.203125 22.394531 L 20.175781 22.453125 L 20.128906 22.515625 L 20.085938 22.621094 L 20.011719 22.800781 L 19.980469 22.875 L 19.933594 22.890625 L 19.90625 22.964844 L 19.875 23.023438 L 19.816406 23.054688 L 19.800781 23.113281 L 19.769531 23.113281 L 19.738281 23.203125 L 19.695312 23.296875 L 19.636719 23.429688 L 19.605469 23.445312 L 19.605469 23.476562 L 19.574219 23.476562 L 19.558594 23.535156 L 19.53125 23.535156 L 19.515625 23.609375 L 19.441406 23.761719 L 19.410156 23.804688 L 19.378906 23.804688 L 19.351562 23.878906 L 19.261719 24.058594 L 19.171875 24.179688 L 19.125 24.328125 L 19.050781 24.421875 L 19.019531 24.464844 L 18.988281 24.464844 L 18.976562 24.523438 L 18.945312 24.523438 L 18.929688 24.585938 L 18.898438 24.585938 L 18.886719 24.644531 L 18.808594 24.765625 L 18.75 24.871094 L 18.660156 24.886719 L 18.613281 24.808594 L 18.628906 24.644531 L 18.644531 24.105469 L 18.660156 24 L 18.644531 23.96875 L 18.644531 23.863281 L 18.675781 23.761719 L 18.691406 23.324219 L 18.71875 23.054688 L 18.75 23.039062 L 18.691406 24.675781 L 18.691406 24.824219 L 18.765625 24.75 L 18.914062 24.480469 L 19.109375 24.164062 L 19.214844 23.984375 L 19.304688 23.820312 L 19.53125 23.414062 L 19.710938 23.101562 L 19.949219 22.695312 L 20.160156 22.320312 L 20.339844 22.003906 L 20.625 21.523438 L 20.820312 21.179688 L 21.238281 20.460938 L 21.433594 20.113281 L 21.644531 19.753906 L 21.871094 19.363281 L 22.003906 19.140625 L 22.019531 19.003906 L 21.929688 18.824219 L 21.75 18.523438 L 21.523438 18.136719 L 21.316406 17.773438 L 20.953125 17.144531 L 20.761719 16.800781 L 20.550781 16.425781 L 20.488281 16.335938 L 20.445312 16.351562 L 20.339844 16.515625 L 20.324219 16.453125 L 20.398438 16.304688 L 20.476562 16.273438 Z M 20.460938 16.230469 "/>
<path style=" stroke:none;fill-rule:nonzero;fill:rgb(29.411766%,88.235295%,1.176471%);fill-opacity:1;" d="M 9.675781 17.101562 L 9.691406 17.128906 L 9.734375 17.144531 L 9.75 17.191406 L 9.78125 17.203125 L 9.765625 17.265625 L 9.78125 17.308594 L 9.808594 17.308594 L 9.824219 17.371094 L 9.929688 17.386719 L 9.945312 17.488281 L 9.976562 17.488281 L 10.019531 17.566406 L 10.050781 17.65625 L 10.09375 17.640625 L 10.140625 17.746094 L 10.214844 17.925781 L 10.289062 18.046875 L 10.304688 18.148438 L 10.378906 18.269531 L 10.425781 18.359375 L 10.425781 18.433594 L 10.453125 18.433594 L 10.453125 18.464844 L 10.5 18.464844 L 10.53125 18.539062 L 10.558594 18.601562 L 10.558594 18.691406 L 10.589844 18.703125 L 10.589844 18.808594 L 10.605469 18.960938 L 10.621094 19.230469 L 10.636719 19.273438 L 10.621094 19.335938 L 10.636719 19.484375 L 10.648438 19.53125 L 10.636719 19.605469 L 10.621094 19.664062 L 10.636719 19.859375 L 10.636719 19.980469 L 10.648438 20.011719 L 10.648438 20.128906 L 10.636719 20.160156 L 10.664062 20.175781 L 10.664062 20.25 L 10.636719 20.25 L 10.664062 20.371094 L 10.636719 20.386719 L 10.636719 20.414062 L 10.664062 20.429688 L 10.664062 20.578125 L 10.648438 20.683594 L 10.664062 20.851562 L 10.648438 20.984375 L 10.648438 21.121094 L 10.664062 21.359375 L 10.664062 21.449219 L 10.636719 21.539062 L 10.621094 21.628906 L 10.648438 21.628906 L 10.664062 21.703125 L 10.621094 21.765625 L 10.648438 21.765625 L 10.664062 21.886719 L 10.648438 21.929688 L 10.648438 22.261719 L 10.664062 22.335938 L 10.679688 22.636719 L 10.695312 22.695312 L 10.695312 22.859375 L 10.710938 22.933594 L 10.710938 23.128906 L 10.695312 23.234375 L 10.679688 23.308594 L 10.664062 23.460938 L 10.664062 23.609375 L 10.636719 23.714844 L 10.636719 23.953125 L 10.664062 24.046875 L 10.664062 24.328125 L 10.679688 24.539062 L 10.664062 24.613281 L 10.605469 24.601562 L 10.515625 24.480469 L 10.46875 24.40625 L 10.363281 24.253906 L 10.363281 24.226562 L 10.335938 24.226562 L 10.273438 24.121094 L 10.230469 24.046875 L 10.246094 23.953125 L 10.214844 23.953125 L 10.15625 23.878906 L 10.078125 23.746094 L 10.003906 23.59375 L 9.988281 23.519531 L 9.945312 23.519531 L 9.929688 23.445312 L 9.914062 23.386719 L 9.886719 23.386719 L 9.855469 23.339844 L 9.855469 23.296875 L 9.824219 23.296875 L 9.734375 23.144531 L 9.703125 23.085938 L 9.660156 23.054688 L 9.675781 22.980469 L 9.644531 22.980469 L 9.601562 22.890625 L 9.601562 22.859375 L 9.570312 22.859375 L 9.511719 22.738281 L 9.511719 22.695312 L 9.480469 22.695312 L 9.40625 22.574219 L 9.375 22.546875 L 9.34375 22.441406 L 9.316406 22.441406 L 9.316406 22.378906 L 9.285156 22.378906 L 9.269531 22.304688 L 9.238281 22.289062 L 9.226562 22.214844 L 9.179688 22.214844 L 9.121094 22.078125 L 9.046875 21.960938 L 9.046875 21.914062 L 9.015625 21.914062 L 9 21.855469 L 8.96875 21.839844 L 8.96875 21.796875 L 8.941406 21.78125 L 8.910156 21.703125 L 8.878906 21.613281 L 8.835938 21.613281 L 8.761719 21.449219 L 8.699219 21.40625 L 8.65625 21.300781 L 8.625 21.226562 L 8.609375 21.136719 L 8.566406 21.121094 L 8.550781 21.074219 L 8.503906 21.058594 L 8.503906 20.953125 L 8.476562 20.953125 L 8.460938 20.894531 L 8.398438 20.863281 L 8.398438 20.820312 L 8.355469 20.804688 L 8.339844 20.714844 L 8.308594 20.699219 L 8.234375 20.550781 L 8.203125 20.519531 L 8.175781 20.445312 L 8.175781 20.386719 L 8.128906 20.371094 L 8.113281 20.308594 L 8.085938 20.308594 L 8.054688 20.28125 L 8.023438 20.191406 L 7.921875 19.996094 L 7.859375 19.949219 L 7.816406 19.816406 L 7.785156 19.769531 L 7.800781 19.738281 L 7.769531 19.738281 L 7.726562 19.664062 L 7.679688 19.636719 L 7.648438 19.558594 L 7.574219 19.410156 L 7.5 19.335938 L 7.46875 19.261719 L 7.484375 19.214844 L 7.453125 19.214844 L 7.394531 19.09375 L 7.410156 18.976562 L 7.453125 18.914062 L 7.484375 18.871094 L 7.484375 18.898438 L 7.515625 18.898438 L 7.484375 18.988281 L 7.453125 19.066406 L 7.589844 19.320312 L 7.753906 19.589844 L 8.175781 20.324219 L 8.398438 20.714844 L 8.550781 20.96875 L 8.746094 21.316406 L 8.910156 21.601562 L 9.164062 22.035156 L 9.613281 22.816406 L 9.855469 23.234375 L 10.050781 23.578125 L 10.289062 24 L 10.53125 24.40625 L 10.574219 24.464844 L 10.621094 24.480469 L 10.605469 24.328125 L 10.574219 22.589844 L 10.546875 20.625 L 10.515625 18.71875 L 10.394531 18.480469 L 10.140625 18.058594 L 9.945312 17.699219 L 9.75 17.371094 L 9.613281 17.128906 L 9.644531 17.113281 L 9.675781 17.175781 L 9.703125 17.191406 L 9.660156 17.113281 Z M 9.675781 17.101562 "/>
<path style=" stroke:none;fill-rule:nonzero;fill:rgb(29.411766%,88.235295%,1.176471%);fill-opacity:1;" d="M 18.839844 6.238281 L 18.898438 6.253906 L 19.019531 6.449219 L 19.019531 6.480469 L 19.050781 6.480469 L 19.050781 6.511719 L 19.109375 6.511719 L 19.09375 6.570312 L 19.140625 6.585938 L 19.199219 6.71875 L 19.261719 6.824219 L 19.289062 6.855469 L 19.273438 6.871094 L 19.304688 6.886719 L 19.335938 6.988281 L 19.378906 7.019531 L 19.363281 7.050781 L 19.46875 7.078125 L 19.515625 7.214844 L 19.574219 7.273438 L 19.605469 7.363281 L 19.648438 7.441406 L 19.648438 7.46875 L 19.695312 7.484375 L 19.710938 7.574219 L 19.695312 7.605469 L 19.738281 7.621094 L 19.726562 7.664062 L 19.800781 7.738281 L 19.816406 7.769531 L 19.875 7.769531 L 19.890625 7.859375 L 19.964844 7.933594 L 19.996094 8.023438 L 20.023438 8.070312 L 20.023438 8.113281 L 20.054688 8.113281 L 20.101562 8.21875 L 20.191406 8.28125 L 20.203125 8.355469 L 20.175781 8.355469 L 20.175781 8.386719 L 20.203125 8.386719 L 20.203125 8.460938 L 20.25 8.476562 L 20.265625 8.550781 L 20.296875 8.550781 L 20.296875 8.578125 L 20.324219 8.578125 L 20.371094 8.65625 L 20.398438 8.746094 L 20.445312 8.820312 L 20.445312 8.894531 L 20.519531 8.910156 L 20.519531 8.984375 L 20.578125 9.03125 L 20.578125 9.058594 L 20.625 9.058594 L 20.640625 9.148438 L 20.699219 9.164062 L 20.714844 9.238281 L 20.746094 9.238281 L 20.746094 9.316406 L 20.773438 9.316406 L 20.773438 9.34375 L 20.835938 9.375 L 20.851562 9.421875 L 20.878906 9.421875 L 20.863281 9.464844 L 20.820312 9.421875 L 20.820312 9.449219 L 20.851562 9.464844 L 20.851562 9.523438 L 20.878906 9.523438 L 20.925781 9.613281 L 20.925781 9.660156 L 20.953125 9.675781 L 21.03125 9.765625 L 21.046875 9.808594 L 21.089844 9.78125 L 21.136719 9.871094 L 21.121094 9.929688 L 21.148438 9.988281 L 21.179688 9.988281 L 21.238281 10.109375 L 21.253906 10.109375 L 21.253906 10.035156 L 21.300781 10.078125 L 21.300781 10.109375 L 21.328125 10.125 L 21.316406 10.199219 L 21.34375 10.199219 L 21.359375 10.273438 L 21.375 10.320312 L 21.40625 10.320312 L 21.433594 10.425781 L 21.496094 10.453125 L 21.480469 10.5 L 21.433594 10.453125 L 21.433594 10.53125 L 21.480469 10.546875 L 21.511719 10.636719 L 21.523438 10.589844 L 21.570312 10.589844 L 21.585938 10.679688 L 21.613281 10.679688 L 21.585938 10.769531 L 21.613281 10.769531 L 21.613281 10.84375 L 21.675781 10.890625 L 21.675781 10.921875 L 21.71875 10.921875 L 21.734375 11.023438 L 21.765625 11.011719 L 21.75 10.933594 L 21.765625 10.980469 L 21.796875 10.980469 L 21.808594 11.039062 L 21.871094 11.070312 L 21.914062 11.175781 L 21.855469 11.144531 L 21.796875 11.085938 L 21.839844 11.160156 L 21.886719 11.296875 L 21.898438 11.355469 L 21.976562 11.371094 L 22.019531 11.503906 L 22.035156 11.503906 L 22.050781 11.460938 L 22.109375 11.578125 L 22.109375 11.640625 L 22.125 11.730469 L 22.171875 11.761719 L 22.199219 11.878906 L 22.171875 11.878906 L 22.183594 11.941406 L 22.171875 12.015625 L 22.140625 12.03125 L 22.125 12.089844 L 22.050781 12.164062 L 22.019531 12.210938 L 21.988281 12.34375 L 21.960938 12.34375 L 21.945312 12.375 L 21.914062 12.359375 L 21.871094 12.496094 L 21.855469 12.523438 L 21.808594 12.601562 L 21.796875 12.644531 L 21.765625 12.644531 L 21.78125 12.71875 L 21.734375 12.78125 L 21.703125 12.871094 L 21.628906 12.914062 L 21.539062 13.019531 L 21.496094 13.109375 L 21.496094 13.140625 L 21.464844 13.140625 L 21.449219 13.214844 L 21.40625 13.320312 L 21.328125 13.378906 L 21.285156 13.453125 L 21.253906 13.453125 L 21.269531 13.558594 L 21.210938 13.679688 L 21.164062 13.695312 L 21.136719 13.769531 L 21.089844 13.769531 L 21.089844 13.800781 L 21.058594 13.800781 L 21.058594 13.828125 L 21.089844 13.84375 L 21.046875 13.859375 L 21.046875 13.890625 L 20.984375 13.933594 L 21.015625 13.964844 L 20.96875 14.039062 L 20.941406 14.039062 L 20.941406 14.085938 L 20.910156 14.085938 L 20.894531 14.160156 L 20.835938 14.175781 L 20.789062 14.324219 L 20.671875 14.476562 L 20.609375 14.609375 L 20.578125 14.625 L 20.535156 14.699219 L 20.503906 14.730469 L 20.414062 14.746094 L 20.398438 14.640625 L 20.355469 14.625 L 20.339844 14.519531 L 20.398438 14.59375 L 20.476562 14.683594 L 20.519531 14.640625 L 20.941406 13.90625 L 21.148438 13.53125 L 21.285156 13.304688 L 21.480469 12.960938 L 21.691406 12.601562 L 21.945312 12.164062 L 22.066406 11.953125 L 22.078125 11.851562 L 21.960938 11.609375 L 21.824219 11.386719 L 21.570312 10.949219 L 21.328125 10.53125 L 20.429688 8.96875 L 20.28125 8.714844 L 19.800781 7.875 L 19.605469 7.546875 L 19.394531 7.171875 L 19.246094 6.914062 L 19.09375 6.644531 L 18.898438 6.328125 L 18.855469 6.316406 L 18.839844 6.464844 L 18.808594 6.433594 L 18.808594 6.269531 Z M 18.839844 6.238281 "/>
<path style=" stroke:none;fill-rule:nonzero;fill:rgb(29.411766%,88.235295%,1.176471%);fill-opacity:1;" d="M 17.730469 18.929688 L 17.820312 18.945312 L 18 18.945312 L 18.074219 18.960938 L 18.136719 18.988281 L 18.136719 19.019531 L 18.164062 19.019531 L 18.179688 19.199219 L 18.164062 19.273438 L 18.179688 19.679688 L 18.195312 19.726562 L 18.226562 19.726562 L 18.226562 19.769531 L 18.179688 19.785156 L 18.195312 19.800781 L 18.195312 19.980469 L 18.148438 20.128906 L 18.164062 20.203125 L 18.164062 20.761719 L 18.179688 20.773438 L 18.179688 20.925781 L 18.164062 21 L 18.136719 21 L 18.164062 21.058594 L 18.136719 21.195312 L 18.121094 21.390625 L 18.121094 21.824219 L 18.105469 21.898438 L 18.089844 22.09375 L 18.105469 22.199219 L 18.074219 22.246094 L 18.058594 22.320312 L 18.089844 22.320312 L 18.089844 22.363281 L 18.058594 22.363281 L 18.074219 22.46875 L 18.058594 22.695312 L 18.046875 23.144531 L 18.058594 23.175781 L 18.046875 23.296875 L 18.058594 23.429688 L 18.046875 23.503906 L 18.015625 23.460938 L 18 23.609375 L 17.984375 23.730469 L 18 23.851562 L 17.984375 24.015625 L 18 24.015625 L 18.015625 24.179688 L 18 24.316406 L 18.015625 24.390625 L 17.984375 24.570312 L 17.96875 24.703125 L 17.941406 24.796875 L 17.941406 24.960938 L 17.925781 24.976562 L 17.910156 25.171875 L 17.910156 25.351562 L 17.878906 25.410156 L 17.683594 25.425781 L 17.28125 25.425781 L 17.25 25.394531 L 17.851562 25.378906 L 17.894531 24.34375 L 17.984375 22.304688 L 18.058594 20.355469 L 18.105469 19.304688 L 18.105469 19.019531 L 11.308594 19.019531 L 11.324219 18.976562 L 11.488281 18.976562 L 11.730469 18.945312 L 11.730469 18.976562 L 11.925781 18.960938 L 13.261719 18.960938 L 13.875 18.976562 L 16.289062 18.976562 L 16.289062 18.945312 L 16.46875 18.945312 L 16.46875 18.976562 L 16.5 18.976562 L 16.5 18.945312 L 17.371094 18.945312 Z M 17.730469 18.929688 "/>
<path style=" stroke:none;fill-rule:nonzero;fill:rgb(29.411766%,88.235295%,1.176471%);fill-opacity:1;" d="M 17.835938 5.488281 L 18 5.488281 L 18.105469 5.535156 L 18.105469 5.609375 L 18.136719 5.65625 L 18.164062 6.015625 L 18.179688 6.074219 L 18.179688 6.601562 L 18.195312 6.675781 L 18.179688 6.75 L 18.179688 7.019531 L 18.148438 7.019531 L 18.136719 7.050781 L 18.164062 7.050781 L 18.179688 7.15625 L 18.179688 7.453125 L 18.164062 7.515625 L 18.179688 7.574219 L 18.179688 7.621094 L 18.148438 7.621094 L 18.164062 7.695312 L 18.179688 7.90625 L 18.164062 8.039062 L 18.148438 8.308594 L 18.164062 8.398438 L 18.136719 8.625 L 18.136719 8.953125 L 18.121094 8.96875 L 18.121094 9.40625 L 18.136719 9.511719 L 18.121094 9.734375 L 18.148438 9.75 L 18.136719 9.886719 L 18.136719 10.066406 L 18.148438 10.289062 L 18.164062 10.574219 L 18.164062 11.023438 L 18.148438 11.085938 L 18.164062 11.175781 L 18.136719 11.191406 L 18.136719 11.265625 L 18.148438 11.28125 L 18.179688 11.234375 L 18.179688 11.578125 L 18.164062 11.851562 L 18.136719 11.851562 L 18.136719 11.878906 L 18.164062 11.894531 L 18.105469 11.910156 L 18.089844 11.984375 L 17.96875 11.984375 L 17.953125 12.015625 L 17.910156 12.015625 L 17.910156 11.984375 L 17.789062 11.984375 L 17.730469 12.015625 L 17.65625 12.03125 L 17.566406 11.984375 L 17.398438 12.03125 L 17.398438 12 L 17.355469 12.015625 L 17.203125 12 L 17.203125 12.015625 L 16.050781 12.015625 L 16.066406 11.96875 L 16.5 11.953125 L 18.074219 11.953125 L 18.074219 10.558594 L 18.058594 7.378906 L 18.046875 5.550781 L 16.050781 5.535156 L 16.050781 5.519531 L 16.15625 5.503906 L 17.820312 5.503906 Z M 17.835938 5.488281 "/>
<path style=" stroke:none;fill-rule:nonzero;fill:rgb(29.411766%,88.235295%,1.176471%);fill-opacity:1;" d="M 18.539062 12.988281 L 18.613281 12.988281 L 18.660156 13.050781 L 18.660156 13.078125 L 18.691406 13.09375 L 18.691406 13.125 L 18.765625 13.183594 L 18.824219 13.246094 L 18.824219 13.273438 L 18.871094 13.289062 L 18.886719 13.378906 L 18.914062 13.378906 L 18.988281 13.5 L 19.019531 13.558594 L 19.066406 13.664062 L 19.109375 13.710938 L 19.109375 13.648438 L 19.15625 13.664062 L 19.199219 13.710938 L 19.246094 13.816406 L 19.230469 13.875 L 19.261719 13.949219 L 19.351562 14.070312 L 19.394531 14.203125 L 19.425781 14.265625 L 19.453125 14.265625 L 19.46875 14.21875 L 19.515625 14.265625 L 19.53125 14.324219 L 19.5 14.339844 L 19.546875 14.445312 L 19.558594 14.414062 L 19.605469 14.429688 L 19.679688 14.566406 L 19.695312 14.566406 L 19.710938 14.683594 L 19.679688 14.683594 L 19.726562 14.773438 L 19.726562 14.804688 L 19.753906 14.804688 L 19.753906 14.863281 L 19.785156 14.863281 L 19.785156 14.953125 L 19.816406 14.925781 L 19.816406 14.984375 L 19.90625 14.984375 L 19.90625 15.015625 L 19.933594 15.015625 L 19.921875 15.074219 L 19.875 15.03125 L 19.890625 15.121094 L 19.933594 15.136719 L 19.949219 15.210938 L 19.980469 15.226562 L 19.964844 15.179688 L 20.011719 15.179688 L 20.023438 15.253906 L 20.085938 15.269531 L 20.128906 15.300781 L 20.113281 15.496094 L 20.085938 15.496094 L 20.054688 15.628906 L 20.011719 15.765625 L 19.980469 15.765625 L 19.964844 15.839844 L 19.933594 15.886719 L 19.90625 15.886719 L 19.890625 15.929688 L 19.859375 15.945312 L 19.828125 16.019531 L 19.769531 16.066406 L 19.753906 16.140625 L 19.710938 16.171875 L 19.648438 16.320312 L 19.605469 16.378906 L 19.558594 16.453125 L 19.53125 16.484375 L 19.515625 16.558594 L 19.484375 16.558594 L 19.453125 16.621094 L 19.394531 16.753906 L 19.378906 16.785156 L 19.351562 16.785156 L 19.335938 16.84375 L 19.335938 16.890625 L 19.320312 16.921875 L 19.289062 16.921875 L 19.304688 16.964844 L 19.273438 16.964844 L 19.273438 16.996094 L 19.230469 16.996094 L 19.15625 17.113281 L 19.140625 17.175781 L 19.078125 17.296875 L 19.050781 17.296875 L 19.035156 17.339844 L 19.003906 17.339844 L 19.003906 17.398438 L 18.976562 17.398438 L 18.960938 17.476562 L 18.914062 17.488281 L 18.886719 17.59375 L 18.855469 17.65625 L 18.824219 17.65625 L 18.796875 17.714844 L 18.71875 17.851562 L 18.691406 17.878906 L 18.585938 17.878906 L 18.496094 17.835938 L 18.480469 17.804688 L 18.433594 17.789062 L 18.433594 17.761719 L 18.375 17.746094 L 18.316406 17.671875 L 18.253906 17.65625 L 18.179688 17.578125 L 18.136719 17.566406 L 18.058594 17.488281 L 17.984375 17.445312 L 17.910156 17.371094 L 17.746094 17.25 L 17.714844 17.234375 L 17.730469 17.191406 L 17.984375 17.371094 L 18.300781 17.609375 L 18.449219 17.714844 L 18.613281 17.835938 L 18.675781 17.851562 L 18.703125 17.773438 L 18.855469 17.519531 L 18.988281 17.28125 L 19.199219 16.921875 L 19.425781 16.53125 L 19.558594 16.289062 L 19.726562 16.003906 L 19.90625 15.703125 L 19.996094 15.523438 L 19.964844 15.421875 L 19.726562 15.015625 L 19.574219 14.761719 L 19.378906 14.414062 L 19.230469 14.160156 L 19.003906 13.769531 L 18.886719 13.558594 L 18.691406 13.199219 L 18.601562 13.078125 L 18.511719 13.125 L 18.316406 13.273438 L 18.285156 13.261719 L 18.300781 13.230469 L 18.328125 13.230469 L 18.34375 13.171875 L 18.375 13.171875 L 18.421875 13.109375 L 18.511719 13.078125 Z M 18.539062 12.988281 "/>
<path style=" stroke:none;fill-rule:nonzero;fill:rgb(29.411766%,88.235295%,1.176471%);fill-opacity:1;" d="M 11.863281 12.660156 L 11.925781 12.660156 L 11.925781 12.691406 L 11.96875 12.675781 L 14.25 12.675781 L 14.355469 12.660156 L 14.59375 12.660156 L 14.65625 12.691406 L 14.65625 12.660156 L 16.574219 12.660156 L 16.636719 12.675781 L 16.636719 12.660156 L 17.535156 12.660156 L 17.671875 12.691406 L 17.730469 12.691406 L 17.730469 12.71875 L 17.761719 12.71875 L 17.761719 12.75 L 17.671875 12.824219 L 17.59375 12.898438 L 17.566406 12.898438 L 17.535156 12.960938 L 17.398438 13.050781 L 17.371094 13.050781 L 17.339844 13.109375 L 17.25 13.183594 L 17.234375 13.214844 L 17.101562 13.289062 L 16.921875 13.410156 L 16.800781 13.53125 L 16.753906 13.53125 L 16.753906 13.574219 L 16.664062 13.621094 L 16.621094 13.664062 L 16.53125 13.695312 L 16.515625 13.738281 L 16.425781 13.785156 L 16.378906 13.828125 L 16.320312 13.859375 L 16.246094 13.933594 L 16.199219 13.949219 L 16.199219 13.980469 L 16.125 13.996094 L 16.109375 14.039062 L 16.066406 14.039062 L 16.035156 14.113281 L 15.914062 14.191406 L 15.886719 14.234375 L 15.796875 14.265625 L 15.691406 14.339844 L 15.644531 14.371094 L 15.601562 14.414062 L 15.554688 14.414062 L 15.554688 14.460938 L 15.464844 14.519531 L 15.449219 14.550781 L 15.375 14.566406 L 15.359375 14.625 L 15.226562 14.714844 L 15.226562 14.746094 L 15.195312 14.746094 L 15.195312 14.773438 L 15.148438 14.804688 L 15.089844 14.804688 L 15.074219 14.851562 L 15.015625 14.863281 L 14.984375 14.894531 L 14.953125 14.878906 L 14.953125 14.910156 L 14.851562 14.953125 L 14.820312 14.96875 L 14.714844 14.96875 L 14.59375 14.925781 L 14.566406 14.894531 L 14.519531 14.863281 L 14.519531 14.835938 L 14.476562 14.835938 L 14.476562 14.789062 L 14.414062 14.761719 L 14.21875 14.640625 L 14.175781 14.609375 L 14.175781 14.578125 L 14.113281 14.566406 L 14.023438 14.460938 L 13.949219 14.445312 L 13.949219 14.414062 L 13.890625 14.398438 L 13.875 14.371094 L 13.816406 14.339844 L 13.695312 14.21875 L 13.710938 14.191406 L 13.875 14.308594 L 14.113281 14.488281 L 14.398438 14.699219 L 14.671875 14.894531 L 14.746094 14.941406 L 14.804688 14.925781 L 15.089844 14.714844 L 15.40625 14.476562 L 15.691406 14.265625 L 15.960938 14.054688 L 16.246094 13.84375 L 16.441406 13.695312 L 16.695312 13.5 L 16.980469 13.289062 L 17.296875 13.050781 L 17.59375 12.824219 L 17.65625 12.75 L 17.671875 12.71875 L 11.820312 12.71875 L 11.820312 12.765625 L 11.863281 12.824219 L 11.789062 12.796875 L 11.746094 12.75 L 11.761719 12.691406 Z M 11.863281 12.660156 "/>
<path style=" stroke:none;fill-rule:nonzero;fill:rgb(29.411766%,88.235295%,1.176471%);fill-opacity:1;" d="M 11.804688 18.136719 L 11.851562 18.148438 L 11.820312 18.210938 L 17.371094 18.210938 L 17.429688 18.226562 L 17.429688 18.253906 L 17.160156 18.285156 L 16.90625 18.316406 L 16.53125 18.316406 L 16.425781 18.300781 L 13.695312 18.300781 L 13.664062 18.316406 L 13.664062 18.285156 L 13.605469 18.316406 L 13.230469 18.316406 L 13.125 18.300781 L 12.796875 18.300781 L 12.585938 18.285156 L 12.34375 18.269531 L 12.074219 18.269531 L 12.03125 18.253906 L 11.820312 18.238281 L 11.789062 18.210938 Z M 11.804688 18.136719 "/>
<path style=" stroke:none;fill-rule:nonzero;fill:rgb(29.411766%,88.235295%,1.176471%);fill-opacity:1;" d="M 10.90625 13.066406 L 11.011719 13.09375 L 11.011719 13.125 L 11.070312 13.140625 L 11.070312 13.171875 L 11.128906 13.199219 L 11.144531 13.214844 L 11.308594 13.246094 L 11.339844 13.246094 L 11.429688 13.363281 L 11.414062 13.394531 L 11.503906 13.441406 L 11.519531 13.46875 L 11.578125 13.5 L 11.566406 13.53125 L 11.625 13.53125 L 11.625 13.574219 L 11.714844 13.589844 L 11.746094 13.605469 L 11.730469 13.636719 L 11.714844 13.648438 L 11.835938 13.648438 L 11.835938 13.710938 L 11.894531 13.695312 L 11.96875 13.710938 L 11.96875 13.738281 L 12.03125 13.753906 L 12.121094 13.800781 L 12.105469 13.890625 L 12.164062 13.890625 L 12.164062 13.949219 L 12.210938 13.949219 L 12.226562 14.011719 L 12.316406 14.011719 L 12.328125 14.054688 L 12.449219 14.070312 L 12.449219 14.113281 L 12.523438 14.160156 L 12.523438 14.191406 L 12.554688 14.191406 L 12.554688 14.234375 L 12.613281 14.265625 L 12.660156 14.308594 L 12.71875 14.339844 L 12.71875 14.371094 L 12.796875 14.355469 L 12.824219 14.414062 L 12.871094 14.414062 L 12.945312 14.460938 L 12.945312 14.488281 L 12.988281 14.503906 L 13.003906 14.550781 L 13.050781 14.578125 L 13.050781 14.609375 L 13.140625 14.609375 L 13.140625 14.65625 L 13.246094 14.683594 L 13.246094 14.730469 L 13.289062 14.699219 L 13.351562 14.789062 L 13.394531 14.804688 L 13.410156 14.851562 L 13.5 14.863281 L 13.546875 14.910156 L 13.558594 14.878906 L 13.589844 14.910156 L 13.636719 15.015625 L 13.726562 15.074219 L 13.785156 15.105469 L 13.800781 15.136719 L 13.859375 15.148438 L 13.890625 15.210938 L 13.949219 15.210938 L 13.980469 15.285156 L 14.039062 15.300781 L 14.085938 15.375 L 14.128906 15.433594 L 14.113281 15.511719 L 14.054688 15.570312 L 14.011719 15.585938 L 13.996094 15.613281 L 13.949219 15.613281 L 13.949219 15.644531 L 13.816406 15.71875 L 13.785156 15.703125 L 14.054688 15.480469 L 14.039062 15.421875 L 13.785156 15.226562 L 13.5 15.015625 L 13.304688 14.863281 L 13.050781 14.683594 L 12.855469 14.535156 L 12.613281 14.355469 L 12.359375 14.160156 L 12.089844 13.964844 L 11.894531 13.816406 L 11.609375 13.605469 L 11.414062 13.453125 L 10.90625 13.078125 Z M 10.90625 13.066406 "/>
<path style=" stroke:none;fill-rule:nonzero;fill:rgb(29.411766%,88.235295%,1.176471%);fill-opacity:1;" d="M 14.910156 15.988281 L 14.96875 16.003906 L 14.96875 16.035156 L 15.046875 16.050781 L 15.089844 16.078125 L 15.136719 16.171875 L 15.210938 16.183594 L 15.253906 16.230469 L 15.285156 16.246094 L 15.285156 16.273438 L 15.34375 16.261719 L 15.359375 16.230469 L 15.511719 16.320312 L 15.554688 16.378906 L 15.523438 16.410156 L 15.585938 16.425781 L 15.628906 16.46875 L 15.644531 16.515625 L 15.75 16.574219 L 15.839844 16.605469 L 15.839844 16.648438 L 15.886719 16.664062 L 15.929688 16.710938 L 15.988281 16.726562 L 16.050781 16.785156 L 16.050781 16.828125 L 16.125 16.84375 L 16.15625 16.875 L 16.230469 16.890625 L 16.246094 16.933594 L 16.289062 16.949219 L 16.304688 16.996094 L 16.378906 17.039062 L 16.410156 17.070312 L 16.410156 17.113281 L 16.441406 17.113281 L 16.441406 17.144531 L 16.558594 17.160156 L 16.621094 17.21875 L 16.695312 17.265625 L 16.695312 17.308594 L 16.785156 17.339844 L 16.800781 17.386719 L 16.875 17.398438 L 16.875 17.429688 L 16.933594 17.445312 L 16.933594 17.488281 L 17.011719 17.503906 L 16.996094 17.550781 L 17.085938 17.566406 L 17.113281 17.609375 L 17.175781 17.640625 L 17.191406 17.671875 L 17.234375 17.671875 L 17.234375 17.714844 L 17.265625 17.714844 L 17.265625 17.746094 L 17.339844 17.746094 L 17.355469 17.773438 L 17.324219 17.789062 L 17.371094 17.804688 L 17.386719 17.773438 L 17.445312 17.851562 L 17.445312 17.863281 L 17.476562 17.878906 L 17.460938 17.910156 L 17.519531 17.925781 L 17.566406 17.96875 L 17.566406 18 L 17.625 18.015625 L 17.699219 18.058594 L 17.714844 18.105469 L 17.789062 18.164062 L 17.789062 18.238281 L 17.714844 18.253906 L 17.535156 18.226562 L 17.535156 18.210938 L 17.730469 18.210938 L 17.625 18.089844 L 16.996094 17.609375 L 16.710938 17.398438 L 16.453125 17.21875 L 16.199219 17.023438 L 15.929688 16.828125 L 15.734375 16.679688 L 15.449219 16.46875 L 15.226562 16.289062 L 15.015625 16.140625 L 14.863281 16.019531 Z M 14.910156 15.988281 "/>
<path style=" stroke:none;fill-rule:nonzero;fill:rgb(29.411766%,88.235295%,1.176471%);fill-opacity:1;" d="M 10.769531 13.171875 L 10.816406 13.171875 L 10.785156 13.246094 L 10.636719 13.53125 L 10.425781 13.890625 L 10.171875 14.324219 L 9.960938 14.699219 L 9.765625 15.03125 L 9.601562 15.316406 L 9.554688 15.433594 L 9.691406 15.691406 L 9.898438 16.050781 L 10.109375 16.425781 L 10.320312 16.785156 L 10.484375 17.070312 L 10.695312 17.429688 L 10.816406 17.65625 L 10.800781 17.683594 L 10.753906 17.65625 L 10.738281 17.578125 L 10.695312 17.566406 L 10.664062 17.488281 L 10.621094 17.398438 L 10.605469 17.355469 L 10.574219 17.355469 L 10.53125 17.25 L 10.46875 17.175781 L 10.425781 17.101562 L 10.425781 17.054688 L 10.394531 17.054688 L 10.378906 16.949219 L 10.351562 16.949219 L 10.320312 16.875 L 10.273438 16.859375 L 10.261719 16.753906 L 10.230469 16.753906 L 10.214844 16.710938 L 10.183594 16.695312 L 10.140625 16.589844 L 10.078125 16.53125 L 10.078125 16.46875 L 10.050781 16.46875 L 10.003906 16.394531 L 10.019531 16.335938 L 9.976562 16.320312 L 9.960938 16.261719 L 9.929688 16.261719 L 9.929688 16.230469 L 9.960938 16.230469 L 9.960938 16.199219 L 9.914062 16.183594 L 9.839844 16.066406 L 9.796875 16.003906 L 9.765625 15.960938 L 9.71875 15.929688 L 9.691406 15.855469 L 9.644531 15.78125 L 9.644531 15.734375 L 9.613281 15.71875 L 9.570312 15.675781 L 9.554688 15.628906 L 9.511719 15.601562 L 9.464844 15.464844 L 9.480469 15.40625 L 9.511719 15.328125 L 9.570312 15.300781 L 9.585938 15.210938 L 9.613281 15.148438 L 9.644531 15.105469 L 9.691406 15.105469 L 9.675781 15.03125 L 9.71875 14.96875 L 9.75 14.96875 L 9.765625 14.894531 L 9.824219 14.789062 L 9.855469 14.789062 L 9.871094 14.683594 L 9.898438 14.683594 L 9.929688 14.59375 L 9.976562 14.609375 L 9.988281 14.535156 L 10.019531 14.445312 L 10.050781 14.445312 L 10.050781 14.414062 L 10.003906 14.429688 L 10.019531 14.355469 L 10.078125 14.339844 L 10.078125 14.308594 L 10.109375 14.308594 L 10.140625 14.175781 L 10.199219 14.144531 L 10.230469 14.054688 L 10.289062 14.011719 L 10.289062 13.949219 L 10.335938 13.933594 L 10.363281 13.875 L 10.425781 13.726562 L 10.441406 13.753906 L 10.46875 13.753906 L 10.46875 13.679688 L 10.5 13.679688 L 10.515625 13.589844 L 10.546875 13.589844 L 10.558594 13.53125 L 10.589844 13.453125 L 10.636719 13.453125 L 10.648438 13.378906 L 10.738281 13.246094 Z M 10.769531 13.171875 "/>
<path style=" stroke:none;fill-rule:nonzero;fill:rgb(29.411766%,88.235295%,1.176471%);fill-opacity:1;" d="M 10.710938 4.753906 L 17.324219 4.753906 L 17.324219 4.769531 L 16.859375 4.785156 L 11.476562 4.785156 L 11.265625 4.800781 L 11.203125 4.816406 L 10.816406 4.84375 L 10.753906 4.875 L 10.679688 4.890625 L 10.648438 4.964844 L 10.621094 4.964844 L 10.53125 5.144531 L 10.441406 5.296875 L 10.394531 5.398438 L 10.363281 5.398438 L 10.351562 5.476562 L 10.273438 5.609375 L 10.183594 5.714844 L 10.078125 5.925781 L 10.050781 5.96875 L 9.976562 6.121094 L 9.945312 6.195312 L 9.898438 6.253906 L 9.871094 6.253906 L 9.855469 6.300781 L 9.78125 6.40625 L 9.75 6.40625 L 9.78125 6.328125 L 10.003906 5.941406 L 10.230469 5.535156 L 10.425781 5.203125 L 10.589844 4.921875 L 10.695312 4.769531 Z M 10.710938 4.753906 "/>
<path style=" stroke:none;fill-rule:nonzero;fill:rgb(29.411766%,88.235295%,1.176471%);fill-opacity:1;" d="M 12.179688 11.953125 L 15.898438 11.953125 L 16.050781 11.96875 L 16.050781 11.984375 L 15.765625 12 L 14.578125 12 L 14.519531 12.015625 L 14.519531 11.984375 L 13.921875 11.984375 L 13.996094 12 L 13.996094 12.015625 L 13.726562 12.015625 L 13.710938 12 L 13.199219 12 L 13.171875 12.015625 L 13.035156 12 L 12.585938 12 L 12.523438 12.015625 L 12.390625 12 L 12.300781 12.015625 L 12.179688 12.046875 L 12.148438 12.03125 L 11.535156 12.03125 L 11.355469 11.984375 L 11.355469 11.96875 Z M 12.179688 11.953125 "/>
<path style=" stroke:none;fill-rule:nonzero;fill:rgb(29.411766%,88.235295%,1.176471%);fill-opacity:1;" d="M 11.878906 5.476562 L 12 5.488281 L 13.066406 5.488281 L 13.09375 5.476562 L 13.09375 5.503906 L 13.515625 5.488281 L 14.566406 5.488281 L 15.433594 5.503906 L 15.808594 5.503906 L 15.898438 5.519531 L 15.898438 5.535156 L 11.578125 5.550781 L 11.566406 5.730469 L 11.550781 5.730469 L 11.550781 5.609375 L 11.535156 5.550781 L 11.566406 5.550781 L 11.566406 5.519531 L 11.625 5.488281 L 11.863281 5.488281 Z M 11.878906 5.476562 "/>
<path style=" stroke:none;fill-rule:nonzero;fill:rgb(29.411766%,88.235295%,1.176471%);fill-opacity:1;" d="M 8.878906 16.46875 L 8.910156 16.46875 L 8.878906 16.546875 L 8.640625 16.980469 L 8.398438 17.398438 L 8.203125 17.730469 L 8.011719 18.074219 L 7.828125 18.390625 L 7.679688 18.644531 L 7.558594 18.839844 L 7.515625 18.898438 L 7.5 18.855469 L 7.53125 18.78125 L 7.558594 18.78125 L 7.546875 18.734375 L 7.605469 18.628906 L 7.648438 18.585938 L 7.726562 18.433594 L 7.769531 18.390625 L 7.800781 18.34375 L 7.828125 18.34375 L 7.816406 18.285156 L 7.84375 18.253906 L 7.875 18.148438 L 7.933594 18.03125 L 7.964844 18.03125 L 7.980469 17.941406 L 7.964844 17.910156 L 7.996094 17.835938 L 8.023438 17.820312 L 8.070312 17.746094 L 8.128906 17.683594 L 8.203125 17.59375 L 8.25 17.550781 L 8.25 17.519531 L 8.28125 17.519531 L 8.28125 17.476562 L 8.308594 17.476562 L 8.324219 17.414062 L 8.355469 17.414062 L 8.339844 17.339844 L 8.371094 17.339844 L 8.371094 17.296875 L 8.398438 17.28125 L 8.445312 17.203125 L 8.503906 17.113281 L 8.535156 17.113281 L 8.550781 17.011719 L 8.59375 16.964844 L 8.609375 16.90625 L 8.640625 16.859375 L 8.671875 16.859375 L 8.65625 16.753906 L 8.699219 16.695312 L 8.746094 16.679688 L 8.789062 16.621094 L 8.804688 16.574219 L 8.835938 16.574219 L 8.851562 16.515625 Z M 8.878906 16.46875 "/>
<path style=" stroke:none;fill-rule:nonzero;fill:rgb(29.411766%,88.235295%,1.176471%);fill-opacity:1;" d="M 21.644531 14.191406 L 21.675781 14.191406 L 21.644531 14.265625 L 21.433594 14.640625 L 21.300781 14.863281 L 21.210938 15.03125 L 21.03125 15.34375 L 20.953125 15.480469 L 20.96875 15.570312 L 21.121094 15.839844 L 21.253906 16.066406 L 21.496094 16.484375 L 21.554688 16.605469 L 21.480469 16.574219 L 21.449219 16.515625 L 21.375 16.378906 L 21.34375 16.351562 L 21.316406 16.261719 L 21.238281 16.171875 L 21.210938 16.066406 L 21.179688 16.050781 L 21.164062 15.988281 L 21.105469 15.929688 L 21.105469 15.898438 L 21.046875 15.871094 L 21.015625 15.734375 L 20.96875 15.75 L 20.878906 15.613281 L 20.863281 15.539062 L 20.894531 15.480469 L 20.910156 15.375 L 20.96875 15.34375 L 20.96875 15.269531 L 20.984375 15.210938 L 21.058594 15.148438 L 21.105469 15.089844 L 21.136719 15.015625 L 21.164062 15.015625 L 21.164062 14.941406 L 21.210938 14.941406 L 21.238281 14.820312 L 21.285156 14.820312 L 21.285156 14.789062 L 21.316406 14.789062 L 21.300781 14.746094 L 21.328125 14.746094 L 21.359375 14.625 L 21.421875 14.566406 L 21.480469 14.414062 L 21.523438 14.386719 L 21.511719 14.355469 L 21.554688 14.339844 L 21.585938 14.25 L 21.628906 14.25 Z M 21.644531 14.191406 "/>
<path style=" stroke:none;fill-rule:nonzero;fill:rgb(29.411766%,88.235295%,1.176471%);fill-opacity:1;" d="M 13.738281 15.734375 L 13.769531 15.734375 L 13.738281 15.796875 L 13.636719 15.886719 L 13.605469 15.945312 L 13.441406 16.066406 L 13.363281 16.140625 L 13.320312 16.15625 L 13.289062 16.183594 L 13.246094 16.183594 L 13.230469 16.214844 L 13.15625 16.230469 L 13.15625 16.261719 L 13.109375 16.261719 L 13.109375 16.289062 L 13.035156 16.320312 L 13.019531 16.363281 L 12.976562 16.363281 L 12.976562 16.394531 L 12.871094 16.453125 L 12.71875 16.605469 L 12.660156 16.621094 L 12.601562 16.679688 L 12.570312 16.679688 L 12.570312 16.710938 L 12.433594 16.816406 L 12.34375 16.84375 L 12.285156 16.890625 L 12.226562 16.875 L 12.421875 16.726562 L 12.898438 16.363281 L 13.171875 16.15625 L 13.335938 16.035156 L 13.605469 15.839844 Z M 13.738281 15.734375 "/>
<path style=" stroke:none;fill-rule:nonzero;fill:rgb(29.411766%,88.235295%,1.176471%);fill-opacity:1;" d="M 18.824219 9.960938 L 18.855469 10.019531 L 18.871094 11.265625 L 18.871094 11.96875 L 18.808594 11.941406 L 18.796875 11.910156 L 18.796875 11.714844 L 18.808594 11.640625 L 18.796875 11.566406 L 18.796875 11.429688 L 18.808594 11.339844 L 18.808594 10.605469 Z M 18.824219 9.960938 "/>
<path style=" stroke:none;fill-rule:nonzero;fill:rgb(29.411766%,88.235295%,1.176471%);fill-opacity:1;" d="M 10.273438 6.929688 L 10.335938 6.945312 L 10.214844 7.15625 L 10.019531 7.5 L 9.898438 7.726562 L 9.703125 8.054688 L 9.523438 8.371094 L 9.390625 8.59375 L 9.34375 8.65625 L 9.300781 8.625 L 9.359375 8.59375 L 9.34375 8.535156 L 9.421875 8.386719 L 9.464844 8.386719 L 9.496094 8.28125 L 9.539062 8.234375 L 9.523438 8.203125 L 9.570312 8.203125 L 9.570312 8.175781 L 9.613281 8.128906 L 9.675781 7.964844 L 9.71875 7.890625 L 9.75 7.859375 L 9.75 7.816406 L 9.765625 7.785156 L 9.796875 7.800781 L 9.808594 7.726562 L 9.886719 7.648438 L 9.929688 7.53125 L 9.976562 7.484375 L 9.976562 7.453125 L 10.019531 7.410156 L 10.019531 7.351562 L 10.050781 7.335938 L 10.09375 7.261719 L 10.140625 7.246094 L 10.15625 7.171875 L 10.140625 7.109375 L 10.183594 7.125 Z M 10.273438 6.929688 "/>
<path style=" stroke:none;fill-rule:nonzero;fill:rgb(29.411766%,88.235295%,1.176471%);fill-opacity:1;" d="M 11.371094 23.308594 L 11.386719 23.308594 L 11.398438 23.59375 L 11.429688 24.855469 L 11.429688 25.289062 L 11.414062 25.335938 L 11.386719 25.335938 L 11.386719 24.914062 L 11.371094 24.808594 L 11.355469 24.511719 L 11.355469 24.316406 L 11.371094 24.074219 L 11.371094 23.804688 L 11.355469 23.714844 L 11.324219 23.699219 L 11.355469 23.640625 L 11.355469 23.339844 Z M 11.371094 23.308594 "/>
<path style=" stroke:none;fill-rule:nonzero;fill:rgb(29.411766%,88.235295%,1.176471%);fill-opacity:1;" d="M 9.089844 16.183594 L 9.148438 16.199219 L 9.210938 16.261719 L 9.210938 16.304688 L 9.269531 16.320312 L 9.285156 16.378906 L 9.316406 16.378906 L 9.285156 16.46875 L 9.316406 16.46875 L 9.316406 16.515625 L 9.375 16.53125 L 9.375 16.574219 L 9.433594 16.589844 L 9.464844 16.769531 L 9.511719 16.769531 L 9.523438 16.859375 L 9.554688 16.859375 L 9.613281 16.980469 L 9.601562 17.011719 L 9.628906 17.011719 L 9.628906 17.101562 L 9.601562 17.113281 L 9.375 16.710938 L 9.179688 16.363281 L 9.089844 16.230469 Z M 9.089844 16.183594 "/>
<path style=" stroke:none;fill-rule:nonzero;fill:rgb(29.411766%,88.627452%,1.176471%);fill-opacity:1;" d="M 22.726562 12.328125 L 22.753906 12.34375 L 22.53125 12.75 L 22.351562 13.050781 L 22.171875 13.363281 L 22.078125 13.515625 L 22.066406 13.515625 L 22.066406 13.410156 L 22.125 13.363281 L 22.125 13.273438 L 22.183594 13.183594 L 22.214844 13.171875 L 22.261719 13.09375 L 22.289062 13.09375 L 22.289062 12.988281 L 22.335938 12.988281 L 22.378906 12.886719 L 22.394531 12.808594 L 22.425781 12.808594 L 22.425781 12.765625 L 22.453125 12.765625 L 22.46875 12.703125 L 22.5 12.644531 L 22.515625 12.601562 L 22.558594 12.554688 L 22.574219 12.523438 L 22.621094 12.523438 L 22.605469 12.480469 L 22.648438 12.433594 L 22.710938 12.34375 Z M 22.726562 12.328125 "/>
<path style=" stroke:none;fill-rule:nonzero;fill:rgb(29.411766%,88.235295%,1.176471%);fill-opacity:1;" d="M 18.449219 4.753906 L 18.644531 4.753906 L 18.898438 4.769531 L 19.003906 4.921875 L 19.15625 5.175781 L 19.140625 5.203125 L 19.09375 5.144531 L 19.09375 5.113281 L 19.066406 5.113281 L 19.003906 5.011719 L 18.960938 4.964844 L 18.929688 4.921875 L 18.898438 4.890625 L 18.914062 4.859375 L 18.886719 4.859375 L 18.871094 4.800781 L 18.796875 4.816406 L 18.71875 4.800781 L 18.449219 4.816406 L 17.804688 4.816406 L 17.550781 4.785156 L 17.550781 4.769531 L 18.449219 4.769531 Z M 18.449219 4.753906 "/>
<path style=" stroke:none;fill-rule:nonzero;fill:rgb(29.411766%,88.235295%,1.176471%);fill-opacity:1;" d="M 21.960938 20.761719 L 21.960938 20.804688 L 21.808594 21.074219 L 21.570312 21.480469 L 21.375 21.824219 L 21.195312 22.140625 L 21.148438 22.140625 L 21.179688 22.066406 L 21.210938 22.003906 L 21.285156 21.886719 L 21.34375 21.765625 L 21.390625 21.71875 L 21.40625 21.644531 L 21.433594 21.644531 L 21.464844 21.570312 L 21.570312 21.40625 L 21.601562 21.300781 L 21.644531 21.226562 L 21.703125 21.105469 L 21.734375 21.105469 L 21.734375 21.046875 L 21.796875 21.015625 L 21.808594 20.953125 L 21.839844 20.953125 L 21.839844 20.910156 L 21.871094 20.910156 L 21.886719 20.851562 L 21.871094 20.789062 L 21.914062 20.789062 Z M 21.960938 20.761719 "/>
<path style=" stroke:none;fill-rule:nonzero;fill:rgb(29.411766%,88.235295%,1.176471%);fill-opacity:1;" d="M 10.125 25.261719 L 10.15625 25.261719 L 10.199219 25.304688 L 10.214844 25.351562 L 10.261719 25.363281 L 10.273438 25.410156 L 10.304688 25.425781 L 10.320312 25.53125 L 10.351562 25.546875 L 10.394531 25.648438 L 10.453125 25.726562 L 10.453125 25.769531 L 10.484375 25.785156 L 10.5 25.859375 L 10.558594 25.949219 L 10.664062 26.054688 L 10.753906 26.101562 L 10.753906 26.113281 L 10.949219 26.128906 L 11.011719 26.128906 L 11.011719 26.160156 L 10.664062 26.160156 L 10.574219 26.054688 L 10.320312 25.621094 L 10.125 25.289062 Z M 10.125 25.261719 "/>
<path style=" stroke:none;fill-rule:nonzero;fill:rgb(29.411766%,88.235295%,1.176471%);fill-opacity:1;" d="M 15.839844 15.796875 L 15.914062 15.824219 L 16.066406 15.945312 L 16.335938 16.140625 L 16.621094 16.351562 L 16.769531 16.46875 L 16.980469 16.621094 L 16.933594 16.636719 L 16.875 16.621094 L 16.859375 16.589844 L 16.769531 16.546875 L 16.695312 16.46875 L 16.558594 16.363281 L 16.441406 16.304688 L 16.441406 16.273438 L 16.378906 16.261719 L 16.304688 16.214844 L 16.246094 16.15625 L 16.246094 16.125 L 16.199219 16.109375 L 16.125 16.050781 L 16.078125 16.003906 L 16.050781 16.003906 L 16.035156 15.960938 L 15.976562 15.945312 L 15.898438 15.855469 Z M 15.839844 15.796875 "/>
<path style=" stroke:none;fill-rule:nonzero;fill:rgb(29.411766%,88.235295%,1.176471%);fill-opacity:1;" d="M 20.398438 7.363281 L 20.460938 7.441406 L 20.671875 7.800781 L 20.878906 8.175781 L 21.015625 8.398438 L 21 8.429688 L 20.925781 8.339844 L 20.878906 8.25 L 20.878906 8.21875 L 20.835938 8.203125 L 20.761719 8.101562 L 20.761719 8.023438 L 20.699219 7.996094 L 20.671875 7.933594 L 20.578125 7.800781 L 20.566406 7.753906 L 20.59375 7.753906 L 20.59375 7.726562 L 20.566406 7.726562 L 20.550781 7.664062 L 20.519531 7.664062 L 20.519531 7.621094 L 20.488281 7.621094 L 20.429688 7.515625 Z M 20.398438 7.363281 "/>
<path style=" stroke:none;fill-rule:nonzero;fill:rgb(29.411766%,88.235295%,1.176471%);fill-opacity:1;" d="M 12.03125 17.023438 L 12.03125 17.070312 L 11.941406 17.128906 L 11.910156 17.191406 L 11.851562 17.234375 L 11.820312 17.28125 L 11.773438 17.308594 L 11.730469 17.324219 L 11.730469 17.355469 L 11.671875 17.355469 L 11.640625 17.414062 L 11.550781 17.445312 L 11.550781 17.476562 L 11.488281 17.503906 L 11.476562 17.535156 L 11.386719 17.578125 L 11.25 17.671875 L 11.175781 17.683594 L 11.25 17.609375 L 11.488281 17.429688 L 11.804688 17.191406 Z M 12.03125 17.023438 "/>
<path style=" stroke:none;fill-rule:nonzero;fill:rgb(29.411766%,88.235295%,1.176471%);fill-opacity:1;" d="M 9.675781 24.34375 L 9.703125 24.40625 L 9.691406 24.480469 L 9.734375 24.496094 L 9.765625 24.523438 L 9.765625 24.585938 L 9.824219 24.585938 L 9.839844 24.628906 L 9.886719 24.660156 L 9.929688 24.78125 L 9.929688 24.824219 L 9.976562 24.839844 L 10.003906 24.898438 L 10.035156 24.914062 L 10.019531 24.976562 L 10.003906 24.988281 L 10.035156 25.003906 L 10.078125 25.140625 L 10.050781 25.15625 L 9.929688 24.929688 L 9.703125 24.554688 L 9.628906 24.40625 L 9.644531 24.359375 Z M 9.675781 24.34375 "/>
<path style=" stroke:none;fill-rule:nonzero;fill:rgb(29.411766%,88.235295%,1.176471%);fill-opacity:1;" d="M 22.410156 18.105469 L 22.46875 18.164062 L 22.679688 18.539062 L 22.890625 18.898438 L 22.949219 19.019531 L 22.933594 19.125 L 22.890625 19.125 L 22.875 18.988281 L 22.84375 18.914062 L 22.816406 18.871094 L 22.828125 18.839844 L 22.800781 18.839844 L 22.800781 18.78125 L 22.738281 18.75 L 22.679688 18.675781 L 22.679688 18.644531 L 22.648438 18.644531 L 22.648438 18.585938 L 22.574219 18.449219 L 22.574219 18.421875 L 22.53125 18.421875 L 22.484375 18.328125 L 22.453125 18.238281 L 22.410156 18.164062 Z M 22.410156 18.105469 "/>
<path style=" stroke:none;fill-rule:nonzero;fill:rgb(29.411766%,88.235295%,1.176471%);fill-opacity:1;" d="M 22.183594 10.453125 L 22.230469 10.515625 L 22.484375 10.949219 L 22.679688 11.296875 L 22.738281 11.414062 L 22.695312 11.398438 L 22.636719 11.339844 L 22.605469 11.265625 L 22.53125 11.160156 L 22.53125 11.113281 L 22.5 11.113281 L 22.441406 10.980469 L 22.394531 10.933594 L 22.320312 10.785156 L 22.320312 10.753906 L 22.289062 10.753906 L 22.261719 10.695312 L 22.214844 10.558594 L 22.171875 10.46875 Z M 22.183594 10.453125 "/>
<path style=" stroke:none;fill-rule:nonzero;fill:rgb(29.411766%,88.235295%,1.176471%);fill-opacity:1;" d="M 19.90625 17.191406 L 19.949219 17.191406 L 19.921875 17.265625 L 19.769531 17.519531 L 19.453125 18.058594 L 19.425781 18.074219 L 19.394531 18.046875 L 19.441406 17.984375 L 19.46875 17.984375 L 19.484375 17.910156 L 19.546875 17.789062 L 19.558594 17.714844 L 19.605469 17.730469 L 19.621094 17.625 L 19.726562 17.488281 L 19.769531 17.398438 L 19.816406 17.355469 L 19.84375 17.28125 L 19.875 17.28125 Z M 19.363281 18.058594 L 19.394531 18.058594 L 19.394531 18.089844 L 19.363281 18.089844 Z M 19.363281 18.058594 "/>
<path style=" stroke:none;fill-rule:nonzero;fill:rgb(29.411766%,88.235295%,1.176471%);fill-opacity:1;" d="M 18.238281 13.261719 L 18.285156 13.289062 L 18.058594 13.46875 L 17.863281 13.621094 L 17.578125 13.828125 L 17.503906 13.875 L 17.488281 13.800781 L 17.566406 13.800781 L 17.65625 13.679688 L 17.699219 13.695312 L 17.714844 13.636719 L 17.761719 13.605469 L 17.789062 13.621094 L 17.789062 13.589844 L 17.835938 13.589844 L 17.863281 13.53125 L 18.03125 13.425781 L 18.089844 13.394531 L 18.164062 13.320312 L 18.195312 13.273438 Z M 18.238281 13.261719 "/>
<path style=" stroke:none;fill-rule:nonzero;fill:rgb(29.411766%,88.235295%,1.176471%);fill-opacity:1;" d="M 22.785156 11.503906 L 22.828125 11.550781 L 22.996094 11.851562 L 22.980469 11.953125 L 22.816406 12.253906 L 22.785156 12.195312 L 22.800781 12.164062 L 22.828125 12.164062 L 22.828125 12.03125 L 22.890625 11.953125 L 22.90625 11.894531 L 22.875 11.894531 L 22.859375 11.820312 L 22.890625 11.789062 L 22.875 11.714844 L 22.84375 11.683594 L 22.859375 11.65625 L 22.800781 11.625 Z M 22.785156 11.503906 "/>
<path style=" stroke:none;fill-rule:nonzero;fill:rgb(29.411766%,88.235295%,1.176471%);fill-opacity:1;" d="M 18.796875 21.285156 L 18.808594 21.285156 L 18.808594 21.554688 L 18.78125 22.140625 L 18.75 22.09375 L 18.71875 21.824219 L 18.703125 21.765625 L 18.734375 21.539062 L 18.734375 21.433594 L 18.765625 21.34375 Z M 18.796875 21.285156 "/>
<path style=" stroke:none;fill-rule:nonzero;fill:rgb(29.411766%,88.235295%,1.176471%);fill-opacity:1;" d="M 22.410156 19.980469 L 22.425781 20.011719 L 22.199219 20.386719 L 22.109375 20.550781 L 21.988281 20.761719 L 21.976562 20.730469 L 22.035156 20.566406 L 22.078125 20.503906 L 22.109375 20.503906 L 22.140625 20.339844 L 22.183594 20.296875 L 22.214844 20.296875 L 22.214844 20.191406 L 22.261719 20.175781 L 22.289062 20.101562 L 22.351562 20.085938 L 22.378906 19.996094 Z M 22.410156 19.980469 "/>
<path style=" stroke:none;fill-rule:nonzero;fill:rgb(29.803923%,88.627452%,1.176471%);fill-opacity:1;" d="M 18.796875 20.445312 L 18.839844 20.445312 L 18.839844 20.699219 L 18.824219 21.089844 L 18.808594 21.148438 L 18.765625 21.148438 L 18.75 21.046875 L 18.765625 20.910156 L 18.78125 20.851562 L 18.796875 20.714844 L 18.78125 20.566406 Z M 18.796875 20.445312 "/>
<path style=" stroke:none;fill-rule:nonzero;fill:rgb(29.803923%,88.627452%,1.176471%);fill-opacity:1;" d="M 16.320312 14.683594 L 16.410156 14.699219 L 16.335938 14.773438 L 16.125 14.925781 L 15.914062 15.089844 L 15.886719 15.074219 L 15.914062 15.03125 L 15.945312 15.03125 L 15.960938 14.953125 L 15.988281 14.953125 L 16.003906 14.925781 L 16.035156 14.925781 L 16.050781 14.863281 L 16.125 14.835938 L 16.171875 14.851562 L 16.199219 14.789062 L 16.246094 14.773438 L 16.261719 14.746094 L 16.289062 14.746094 L 16.289062 14.714844 L 16.320312 14.714844 Z M 16.320312 14.683594 "/>
<path style=" stroke:none;fill-rule:nonzero;fill:rgb(29.411766%,88.235295%,1.176471%);fill-opacity:1;" d="M 20.535156 23.160156 L 20.578125 23.191406 L 20.460938 23.398438 L 20.308594 23.65625 L 20.191406 23.863281 L 20.160156 23.878906 L 20.175781 23.804688 L 20.21875 23.683594 L 20.28125 23.625 L 20.308594 23.566406 L 20.355469 23.429688 L 20.429688 23.355469 L 20.488281 23.28125 Z M 20.535156 23.160156 "/>
<path style=" stroke:none;fill-rule:nonzero;fill:rgb(29.411766%,88.235295%,1.176471%);fill-opacity:1;" d="M 19.453125 12.960938 L 19.5 13.019531 L 19.738281 13.441406 L 19.890625 13.695312 L 19.890625 13.726562 L 19.828125 13.695312 L 19.726562 13.53125 L 19.574219 13.230469 L 19.484375 13.066406 L 19.453125 13.019531 Z M 19.453125 12.960938 "/>
<path style=" stroke:none;fill-rule:nonzero;fill:rgb(29.411766%,88.235295%,1.176471%);fill-opacity:1;" d="M 11.488281 7.320312 L 11.503906 7.320312 L 11.488281 7.859375 L 11.476562 8.039062 L 11.445312 8.023438 L 11.445312 7.859375 L 11.429688 7.785156 L 11.445312 7.410156 L 11.460938 7.363281 L 11.488281 7.363281 Z M 11.488281 7.320312 "/>
<path style=" stroke:none;fill-rule:nonzero;fill:rgb(29.411766%,88.235295%,1.176471%);fill-opacity:1;" d="M 18.914062 12.058594 L 18.988281 12.136719 L 19.214844 12.523438 L 19.273438 12.628906 L 19.261719 12.660156 L 19.246094 12.613281 L 19.183594 12.585938 L 19.078125 12.421875 L 18.914062 12.089844 Z M 18.914062 12.058594 "/>
<path style=" stroke:none;fill-rule:nonzero;fill:rgb(29.411766%,88.235295%,1.176471%);fill-opacity:1;" d="M 22.785156 19.304688 L 22.816406 19.304688 L 22.785156 19.394531 L 22.589844 19.726562 L 22.453125 19.964844 L 22.425781 19.980469 L 22.441406 19.890625 L 22.515625 19.769531 L 22.53125 19.695312 L 22.574219 19.648438 L 22.605469 19.605469 L 22.636719 19.605469 L 22.664062 19.515625 L 22.679688 19.453125 L 22.710938 19.441406 L 22.710938 19.363281 L 22.753906 19.351562 Z M 22.785156 19.304688 "/>
<path style=" stroke:none;fill-rule:nonzero;fill:rgb(29.803923%,88.627452%,1.176471%);fill-opacity:1;" d="M 17.398438 13.890625 L 17.414062 13.921875 L 17.445312 13.933594 L 17.203125 14.113281 L 17.039062 14.234375 L 16.949219 14.296875 L 16.933594 14.234375 L 16.996094 14.203125 L 17.011719 14.175781 L 17.070312 14.160156 L 17.191406 14.039062 L 17.324219 13.980469 L 17.339844 13.949219 L 17.371094 13.949219 Z M 17.398438 13.890625 "/>
<path style=" stroke:none;fill-rule:nonzero;fill:rgb(29.411766%,88.235295%,1.176471%);fill-opacity:1;" d="M 18.433594 26.101562 L 18.539062 26.101562 L 18.808594 26.144531 L 18.808594 26.160156 L 18.058594 26.160156 L 18.058594 26.128906 L 18.40625 26.113281 Z M 18.433594 26.101562 "/>
<path style=" stroke:none;fill-rule:nonzero;fill:rgb(29.411766%,88.235295%,1.176471%);fill-opacity:1;" d="M 12.71875 13.453125 L 12.855469 13.546875 L 13.335938 13.90625 L 13.320312 13.933594 L 13.289062 13.933594 L 13.273438 13.90625 L 13.230469 13.890625 L 13.183594 13.84375 L 13.15625 13.828125 L 13.15625 13.800781 L 13.09375 13.785156 L 13.09375 13.753906 L 13.035156 13.738281 L 13.019531 13.695312 L 12.929688 13.664062 L 12.855469 13.621094 L 12.855469 13.574219 L 12.765625 13.546875 L 12.765625 13.5 L 12.71875 13.484375 Z M 12.71875 13.453125 "/>
<path style=" stroke:none;fill-rule:nonzero;fill:rgb(29.411766%,88.235295%,1.176471%);fill-opacity:1;" d="M 18.855469 19.441406 L 18.886719 19.453125 L 18.871094 19.800781 L 18.855469 19.859375 L 18.824219 19.859375 L 18.796875 19.726562 L 18.808594 19.5 L 18.839844 19.484375 Z M 18.855469 19.441406 "/>
<path style=" stroke:none;fill-rule:nonzero;fill:rgb(29.411766%,88.235295%,1.176471%);fill-opacity:1;" d="M 15.855469 15.089844 L 15.886719 15.105469 L 15.675781 15.269531 L 15.480469 15.421875 L 15.464844 15.375 L 15.539062 15.300781 L 15.628906 15.226562 L 15.675781 15.179688 L 15.703125 15.179688 L 15.703125 15.148438 L 15.734375 15.148438 L 15.75 15.121094 L 15.839844 15.105469 Z M 15.855469 15.089844 "/>
<path style=" stroke:none;fill-rule:nonzero;fill:rgb(29.411766%,88.235295%,1.176471%);fill-opacity:1;" d="M 21.871094 9.914062 L 21.929688 9.988281 L 22.15625 10.378906 L 22.171875 10.453125 L 22.15625 10.425781 L 22.09375 10.425781 L 22.066406 10.304688 L 22.035156 10.273438 L 22.003906 10.261719 L 21.960938 10.140625 L 21.960938 10.09375 L 21.929688 10.09375 L 21.898438 9.988281 L 21.871094 9.988281 L 21.855469 9.929688 Z M 21.871094 9.914062 "/>
<path style=" stroke:none;fill-rule:nonzero;fill:rgb(29.411766%,88.235295%,1.176471%);fill-opacity:1;" d="M 12.074219 12.976562 L 12.164062 13.035156 L 12.449219 13.246094 L 12.71875 13.441406 L 12.675781 13.453125 L 12.496094 13.320312 L 12.449219 13.304688 L 12.449219 13.273438 L 12.375 13.246094 L 12.269531 13.15625 L 12.121094 13.050781 L 12.074219 13.019531 Z M 12.074219 12.976562 "/>
<path style=" stroke:none;fill-rule:nonzero;fill:rgb(29.411766%,88.235295%,1.176471%);fill-opacity:1;" d="M 16.90625 14.296875 L 16.949219 14.308594 L 16.710938 14.488281 L 16.515625 14.640625 L 16.46875 14.65625 L 16.453125 14.59375 L 16.53125 14.550781 L 16.53125 14.535156 L 16.621094 14.535156 L 16.621094 14.503906 L 16.664062 14.488281 L 16.726562 14.398438 L 16.738281 14.371094 L 16.800781 14.355469 L 16.828125 14.371094 L 16.84375 14.324219 Z M 16.90625 14.296875 "/>
<path style=" stroke:none;fill-rule:nonzero;fill:rgb(29.411766%,88.235295%,1.176471%);fill-opacity:1;" d="M 16.273438 25.378906 L 17.234375 25.378906 L 17.234375 25.394531 L 16.996094 25.410156 L 16.664062 25.410156 L 16.5 25.425781 L 16.425781 25.425781 L 16.351562 25.410156 L 16.273438 25.410156 Z M 16.273438 25.378906 "/>
<path style=" stroke:none;fill-rule:nonzero;fill:rgb(29.411766%,88.235295%,1.176471%);fill-opacity:1;" d="M 21.449219 9.179688 L 21.496094 9.238281 L 21.71875 9.628906 L 21.765625 9.703125 L 21.765625 9.734375 L 21.734375 9.734375 L 21.644531 9.601562 L 21.585938 9.449219 L 21.554688 9.449219 L 21.554688 9.421875 L 21.511719 9.40625 L 21.480469 9.300781 L 21.449219 9.226562 Z M 21.449219 9.179688 "/>
<path style=" stroke:none;fill-rule:nonzero;fill:rgb(29.411766%,88.235295%,1.176471%);fill-opacity:1;" d="M 20.070312 6.796875 L 20.128906 6.871094 L 20.324219 7.214844 L 20.398438 7.335938 L 20.398438 7.363281 L 20.355469 7.351562 L 20.21875 7.09375 L 20.160156 7.019531 L 20.160156 6.976562 L 20.113281 6.960938 L 20.054688 6.808594 Z M 20.070312 6.796875 "/>
<path style=" stroke:none;fill-rule:nonzero;fill:rgb(29.411766%,88.235295%,1.176471%);fill-opacity:1;" d="M 21.03125 8.460938 L 21.089844 8.535156 L 21.316406 8.925781 L 21.359375 9.015625 L 21.316406 9.015625 L 21.210938 8.835938 L 21.195312 8.789062 L 21.148438 8.746094 L 21.105469 8.640625 L 21.046875 8.550781 Z M 21.03125 8.460938 "/>
<path style=" stroke:none;fill-rule:nonzero;fill:rgb(29.803923%,88.627452%,1.176471%);fill-opacity:1;" d="M 20.925781 22.515625 L 20.953125 22.515625 L 20.925781 22.605469 L 20.804688 22.800781 L 20.699219 22.996094 L 20.683594 22.933594 L 20.730469 22.828125 L 20.761719 22.828125 L 20.789062 22.695312 L 20.863281 22.605469 L 20.863281 22.574219 Z M 20.925781 22.515625 "/>
<path style=" stroke:none;fill-rule:nonzero;fill:rgb(29.411766%,88.235295%,1.176471%);fill-opacity:1;" d="M 19.558594 5.910156 L 19.605469 5.96875 L 19.84375 6.375 L 19.84375 6.40625 L 19.816406 6.40625 L 19.816406 6.375 L 19.769531 6.359375 L 19.726562 6.269531 L 19.726562 6.238281 L 19.695312 6.238281 L 19.636719 6.105469 L 19.546875 5.953125 Z M 19.558594 5.910156 "/>
<path style=" stroke:none;fill-rule:nonzero;fill:rgb(29.411766%,88.235295%,1.176471%);fill-opacity:1;" d="M 12.089844 25.378906 L 12.675781 25.378906 L 12.691406 25.410156 L 12.644531 25.425781 L 12.464844 25.425781 L 12.390625 25.410156 L 12.226562 25.425781 L 12.210938 25.410156 L 12.089844 25.394531 Z M 12.089844 25.378906 "/>
<path style=" stroke:none;fill-rule:nonzero;fill:rgb(29.411766%,88.235295%,1.176471%);fill-opacity:1;" d="M 19.828125 24.40625 L 19.875 24.421875 L 19.679688 24.75 L 19.589844 24.898438 L 19.558594 24.886719 L 19.589844 24.808594 L 19.621094 24.796875 L 19.664062 24.660156 L 19.695312 24.660156 L 19.695312 24.628906 L 19.726562 24.628906 L 19.710938 24.585938 L 19.753906 24.523438 L 19.785156 24.464844 L 19.816406 24.449219 Z M 19.828125 24.40625 "/>
<path style=" stroke:none;fill-rule:nonzero;fill:rgb(29.411766%,88.235295%,1.176471%);fill-opacity:1;" d="M 15.449219 15.480469 L 15.539062 15.539062 L 15.75 15.703125 L 15.839844 15.78125 L 15.808594 15.796875 L 15.703125 15.71875 L 15.628906 15.691406 L 15.554688 15.613281 L 15.433594 15.511719 Z M 15.449219 15.480469 "/>
<path style=" stroke:none;fill-rule:nonzero;fill:rgb(29.411766%,88.235295%,1.176471%);fill-opacity:1;" d="M 11.488281 6.808594 L 11.519531 6.824219 L 11.519531 7.035156 L 11.503906 7.273438 L 11.476562 7.261719 L 11.445312 7.140625 L 11.476562 7.140625 L 11.460938 7.050781 L 11.476562 6.824219 Z M 11.488281 6.808594 "/>
<path style=" stroke:none;fill-rule:nonzero;fill:rgb(29.411766%,88.235295%,1.176471%);fill-opacity:1;" d="M 17.308594 16.890625 L 17.371094 16.921875 L 17.59375 17.085938 L 17.714844 17.175781 L 17.65625 17.203125 L 17.65625 17.175781 L 17.535156 17.113281 L 17.535156 17.085938 L 17.476562 17.070312 L 17.324219 16.921875 Z M 17.308594 16.890625 "/>
<path style=" stroke:none;fill-rule:nonzero;fill:rgb(30.19608%,89.019608%,1.176471%);fill-opacity:1;" d="M 18.855469 19.875 L 18.871094 19.933594 L 18.855469 20.296875 L 18.839844 20.371094 L 18.808594 20.324219 L 18.796875 20.265625 L 18.796875 20.144531 L 18.824219 19.996094 L 18.824219 19.933594 Z M 18.855469 19.875 "/>
<path style=" stroke:none;fill-rule:nonzero;fill:rgb(29.411766%,88.235295%,1.176471%);fill-opacity:1;" d="M 18.691406 22.589844 L 18.71875 22.589844 L 18.734375 22.664062 L 18.765625 22.648438 L 18.75 22.980469 L 18.71875 22.933594 L 18.691406 22.859375 L 18.703125 22.769531 L 18.675781 22.664062 Z M 18.691406 22.589844 "/>
<path style=" stroke:none;fill-rule:nonzero;fill:rgb(29.411766%,88.235295%,1.176471%);fill-opacity:1;" d="M 21.914062 13.695312 L 21.960938 13.695312 L 21.929688 13.785156 L 21.78125 14.023438 L 21.765625 13.964844 L 21.796875 13.859375 L 21.855469 13.828125 L 21.886719 13.726562 Z M 21.914062 13.695312 "/>
<path style=" stroke:none;fill-rule:nonzero;fill:rgb(29.803923%,89.019608%,1.176471%);fill-opacity:1;" d="M 11.339844 21.511719 L 11.355469 21.511719 L 11.371094 21.660156 L 11.371094 22.125 L 11.339844 22.078125 L 11.324219 21.734375 L 11.324219 21.554688 Z M 11.339844 21.511719 "/>
<path style=" stroke:none;fill-rule:nonzero;fill:rgb(29.411766%,88.235295%,1.176471%);fill-opacity:1;" d="M 21.644531 16.828125 L 21.703125 16.84375 L 21.898438 17.191406 L 21.960938 17.28125 L 21.945312 17.308594 L 21.898438 17.265625 L 21.808594 17.101562 L 21.71875 16.949219 L 21.71875 16.921875 L 21.675781 16.921875 Z M 21.644531 16.828125 "/>
<path style=" stroke:none;fill-rule:nonzero;fill:rgb(29.803923%,88.627452%,1.176471%);fill-opacity:1;" d="M 20.234375 16.636719 L 20.265625 16.648438 L 20.054688 17.023438 L 20.011719 17.085938 L 19.996094 17.023438 L 20.054688 16.933594 L 20.175781 16.726562 Z M 20.234375 16.636719 "/>
<path style=" stroke:none;fill-rule:nonzero;fill:rgb(29.411766%,88.235295%,1.176471%);fill-opacity:1;" d="M 19.484375 25.035156 L 19.5 25.066406 L 19.320312 25.378906 L 19.289062 25.378906 L 19.335938 25.230469 L 19.363281 25.230469 L 19.394531 25.125 L 19.425781 25.125 L 19.425781 25.09375 L 19.453125 25.09375 L 19.453125 25.050781 Z M 19.484375 25.035156 "/>
<path style=" stroke:none;fill-rule:nonzero;fill:rgb(29.411766%,88.235295%,1.176471%);fill-opacity:1;" d="M 14.070312 16.441406 L 14.101562 16.453125 L 13.949219 16.574219 L 13.800781 16.679688 L 13.785156 16.648438 L 13.921875 16.515625 L 13.964844 16.515625 L 14.023438 16.453125 Z M 14.070312 16.441406 "/>
<path style=" stroke:none;fill-rule:nonzero;fill:rgb(29.411766%,88.235295%,1.176471%);fill-opacity:1;" d="M 19.171875 18.511719 L 19.171875 18.554688 L 19.050781 18.765625 L 18.988281 18.796875 L 19.003906 18.71875 L 19.035156 18.703125 L 19.050781 18.628906 L 19.109375 18.570312 L 19.125 18.523438 Z M 19.171875 18.511719 "/>
<path style=" stroke:none;fill-rule:nonzero;fill:rgb(29.411766%,88.235295%,1.176471%);fill-opacity:1;" d="M 19.410156 18.089844 L 19.410156 18.136719 L 19.273438 18.375 L 19.246094 18.34375 L 19.261719 18.269531 L 19.320312 18.195312 L 19.351562 18.121094 Z M 19.410156 18.089844 "/>
<path style=" stroke:none;fill-rule:nonzero;fill:rgb(29.411766%,88.235295%,1.176471%);fill-opacity:1;" d="M 13.695312 16.695312 L 13.738281 16.726562 L 13.515625 16.90625 L 13.410156 16.980469 L 13.378906 16.964844 L 13.46875 16.890625 L 13.53125 16.828125 L 13.621094 16.769531 L 13.664062 16.726562 L 13.695312 16.726562 Z M 13.695312 16.695312 "/>
<path style=" stroke:none;fill-rule:nonzero;fill:rgb(29.411766%,88.235295%,1.176471%);fill-opacity:1;" d="M 18.765625 22.15625 L 18.78125 22.15625 L 18.765625 22.605469 L 18.734375 22.546875 L 18.734375 22.46875 L 18.703125 22.410156 L 18.75 22.230469 Z M 18.765625 22.15625 "/>
<path style=" stroke:none;fill-rule:nonzero;fill:rgb(29.411766%,88.235295%,1.176471%);fill-opacity:1;" d="M 16.980469 16.636719 L 17.144531 16.738281 L 17.296875 16.859375 L 17.25 16.875 L 17.101562 16.769531 L 17.101562 16.738281 L 17.039062 16.726562 L 17.039062 16.695312 L 16.980469 16.664062 Z M 16.980469 16.636719 "/>
<path style=" stroke:none;fill-rule:nonzero;fill:rgb(29.411766%,88.235295%,1.176471%);fill-opacity:1;" d="M 22.140625 17.640625 L 22.183594 17.683594 L 22.335938 17.941406 L 22.320312 17.96875 L 22.246094 17.894531 L 22.199219 17.804688 L 22.199219 17.773438 L 22.171875 17.761719 L 22.15625 17.699219 L 22.125 17.671875 Z M 22.140625 17.640625 "/>
<path style=" stroke:none;fill-rule:nonzero;fill:rgb(29.411766%,88.235295%,1.176471%);fill-opacity:1;" d="M 13.335938 16.996094 L 13.363281 17.011719 L 13.09375 17.21875 L 13.066406 17.203125 L 13.199219 17.070312 L 13.246094 17.070312 L 13.261719 17.023438 Z M 13.335938 16.996094 "/>
<path style=" stroke:none;fill-rule:nonzero;fill:rgb(29.411766%,88.235295%,1.176471%);fill-opacity:1;" d="M 12.988281 14.488281 L 13.140625 14.535156 L 13.230469 14.609375 L 13.214844 14.65625 L 13.066406 14.566406 L 13.003906 14.535156 Z M 12.988281 14.488281 "/>
<path style=" stroke:none;fill-rule:nonzero;fill:rgb(29.411766%,88.235295%,1.176471%);fill-opacity:1;" d="M 18.871094 19.140625 L 18.886719 19.140625 L 18.886719 19.378906 L 18.824219 19.351562 L 18.824219 19.304688 L 18.839844 19.171875 Z M 18.871094 19.140625 "/>
<path style=" stroke:none;fill-rule:nonzero;fill:rgb(29.411766%,88.235295%,1.176471%);fill-opacity:1;" d="M 11.324219 20.789062 L 11.339844 20.789062 L 11.355469 20.953125 L 11.355469 21.089844 L 11.324219 21.136719 L 11.308594 21.058594 L 11.308594 20.804688 Z M 11.324219 20.789062 "/>
<path style=" stroke:none;fill-rule:nonzero;fill:rgb(29.803923%,89.019608%,1.176471%);fill-opacity:1;" d="M 9.675781 24.34375 L 9.703125 24.40625 L 9.691406 24.480469 L 9.734375 24.496094 L 9.75 24.539062 L 9.691406 24.523438 L 9.628906 24.40625 L 9.644531 24.359375 Z M 9.675781 24.34375 "/>
<path style=" stroke:none;fill-rule:nonzero;fill:rgb(29.411766%,88.235295%,1.176471%);fill-opacity:1;" d="M 20.085938 14.070312 L 20.144531 14.144531 L 20.25 14.324219 L 20.25 14.355469 L 20.203125 14.355469 L 20.085938 14.113281 Z M 20.085938 14.070312 "/>
<path style=" stroke:none;fill-rule:nonzero;fill:rgb(29.411766%,88.235295%,1.176471%);fill-opacity:1;" d="M 11.550781 5.925781 L 11.566406 5.925781 L 11.550781 6.238281 L 11.519531 6.269531 L 11.519531 5.984375 Z M 11.550781 5.925781 "/>
<path style=" stroke:none;fill-rule:nonzero;fill:rgb(30.588236%,89.411765%,1.568628%);fill-opacity:1;" d="M 11.324219 21.148438 L 11.355469 21.164062 L 11.355469 21.496094 L 11.324219 21.464844 L 11.308594 21.164062 Z M 11.324219 21.148438 "/>
<path style=" stroke:none;fill-rule:nonzero;fill:rgb(30.588236%,89.411765%,1.568628%);fill-opacity:1;" d="M 18.734375 23.039062 L 18.75 23.101562 L 18.734375 23.371094 L 18.691406 23.324219 L 18.71875 23.054688 Z M 18.734375 23.039062 "/>
<path style=" stroke:none;fill-rule:nonzero;fill:rgb(29.803923%,88.627452%,1.176471%);fill-opacity:1;" d="M 20.054688 24.015625 L 20.085938 24.03125 L 20.054688 24.105469 L 19.964844 24.269531 L 19.933594 24.226562 L 19.980469 24.164062 Z M 20.054688 24.015625 "/>
<path style=" stroke:none;fill-rule:nonzero;fill:rgb(29.411766%,88.235295%,1.176471%);fill-opacity:1;" d="M 9.285156 8.714844 L 9.300781 8.761719 L 9.179688 8.953125 L 9.164062 8.910156 L 9.195312 8.851562 L 9.226562 8.851562 L 9.238281 8.773438 Z M 9.285156 8.714844 "/>
<path style=" stroke:none;fill-rule:nonzero;fill:rgb(30.19608%,89.019608%,1.176471%);fill-opacity:1;" d="M 16.273438 25.378906 L 16.515625 25.378906 L 16.484375 25.425781 L 16.320312 25.410156 L 16.273438 25.410156 Z M 16.273438 25.378906 "/>
<path style=" stroke:none;fill-rule:nonzero;fill:rgb(29.411766%,88.235295%,1.176471%);fill-opacity:1;" d="M 13.46875 14.023438 L 13.53125 14.054688 L 13.679688 14.160156 L 13.648438 14.175781 L 13.574219 14.128906 L 13.515625 14.113281 Z M 13.46875 14.023438 "/>
<path style=" stroke:none;fill-rule:nonzero;fill:rgb(29.411766%,88.235295%,1.176471%);fill-opacity:1;" d="M 19.335938 12.765625 L 19.378906 12.808594 L 19.453125 12.960938 L 19.425781 12.960938 L 19.335938 12.839844 Z M 19.335938 12.765625 "/>
<path style=" stroke:none;fill-rule:nonzero;fill:rgb(29.411766%,88.235295%,1.176471%);fill-opacity:1;" d="M 11.296875 11.671875 L 11.324219 11.683594 L 11.308594 11.953125 L 11.296875 11.894531 L 11.265625 11.878906 L 11.296875 11.878906 L 11.28125 11.746094 Z M 11.296875 11.671875 "/>
<path style=" stroke:none;fill-rule:nonzero;fill:rgb(29.411766%,88.235295%,1.176471%);fill-opacity:1;" d="M 18.960938 18.796875 L 19.003906 18.808594 L 18.976562 18.886719 L 18.929688 18.960938 L 18.914062 18.898438 Z M 18.960938 18.796875 "/>
</g>
</svg>
